<?xml version="1.0" standalone="no"?>
<!DOCTYPE svg PUBLIC "-//W3C//DTD SVG 20010904//EN"
 "http://www.w3.org/TR/2001/REC-SVG-20010904/DTD/svg10.dtd">
<svg version="1.0" xmlns="http://www.w3.org/2000/svg"
 width="534.000000pt" height="534.000000pt" viewBox="0 0 534.000000 534.000000"
 preserveAspectRatio="xMidYMid meet">
<metadata>
Created by potrace 1.15, written by Peter Selinger 2001-2017
</metadata>
<g transform="translate(0.000000,534.000000) scale(0.100000,-0.100000)"
fill="#000000" stroke="none">
<path d="M2405 5328 c-3 -7 -6 -128 -7 -268 l-3 -255 -435 -5 c-488 -6 -472
-3 -547 -81 -75 -78 -73 -59 -73 -721 l0 -589 26 -54 c28 -60 67 -98 134 -129
45 -21 50 -21 1170 -21 1120 0 1125 0 1170 21 65 30 105 68 134 126 l26 52 0
592 c0 665 2 645 -73 723 -75 78 -59 75 -547 81 l-435 5 -5 265 -5 265 -263 3
c-205 2 -264 0 -267 -10z m-158 -1082 c127 -65 183 -204 138 -337 -20 -58 -95
-133 -154 -154 -166 -58 -341 50 -358 221 -13 123 61 237 182 282 41 16 153 9
192 -12z m1075 -6 c97 -48 143 -127 143 -240 -1 -82 -13 -114 -68 -176 -92
-106 -266 -112 -371 -15 -147 137 -98 377 91 447 55 20 148 13 205 -16z"/>
<path d="M272 2763 c3 -397 5 -441 21 -470 28 -52 77 -102 121 -126 40 -21 52
-22 481 -27 l440 -5 5 -1065 5 -1065 260 0 260 0 3 533 2 532 800 0 800 0 2
-532 3 -533 260 0 260 0 5 1065 5 1065 265 0 265 0 5 -265 5 -265 260 0 260 0
0 435 0 435 -23 45 c-32 60 -63 92 -120 121 l-47 24 -2035 5 -2035 5 -3 263
-2 262 -266 0 -265 0 3 -437z"/>
</g>
</svg>
