<?xml version="1.0" encoding="utf-8"?>
<!-- Generator: Adobe Illustrator 21.1.0, SVG Export Plug-In . SVG Version: 6.00 Build 0)  -->
<!DOCTYPE svg PUBLIC "-//W3C//DTD SVG 1.1//EN" "http://www.w3.org/Graphics/SVG/1.1/DTD/svg11.dtd" [
	<!ENTITY st0 "fill:#86C724;">
]>
<svg version="1.1" id="Слой_1" xmlns="http://www.w3.org/2000/svg" xmlns:xlink="http://www.w3.org/1999/xlink" x="0px" y="0px"
	 viewBox="0 0 640 640" style="enable-background:new 0 0 640 640;" xml:space="preserve">
<g transform="translate(0.000000,640.000000) scale(0.100000,-0.100000)">
	<path style="&st0;" d="M2280,6229c-207-20-471-86-690-174c-147-59-394-189-420-220c-7-8-17-15-22-15c-7,0-82-51-133-92
		c-303-240-524-491-689-786c-158-282-260-579-303-887c-25-171-24-594,0-758c42-278,121-527,251-785c381-758,1142-1288,1986-1382
		c92-11,532-16,548-7c4,3,41,8,82,11c175,15,484,97,665,176c124,54,262,125,350,181l96,60l37-31c32-26,45-30,96-30c45,0,69,6,102,25
		l43,26l7-28c3-16,15-53,26-83c19-50,68-102,596-632c666-668,622-633,797-633c101,0,114,2,167,29c73,37,141,105,176,176
		c24,50,27,66,27,165c0,176,33,135-605,773c-302,303-567,563-587,580c-35,27-116,62-146,62c-7,0-18,4-26,9c-12,7-10,14,7,36
		c29,36,45,100,37,142c-3,18-20,49-37,68l-30,35l26,38c14,21,26,43,26,49s4,13,8,15c26,10,155,267,217,433c178,475,208,1070,78,1555
		c-49,183-148,443-195,512c-10,14-18,30-18,35c0,14-110,198-121,201c-5,2-9,9-9,15c-1,38-258,346-388,463c-136,124-318,264-342,264
		c-4,0-10,4-12,9c-5,13-141,92-253,148c-136,68-389,163-475,180c-8,1-53,12-100,23c-106,25-126,28-275,45
		C2723,6241,2428,6242,2280,6229z M2835,5919c85-10,260-47,387-83c145-41,374-146,519-237c43-27,81-49,83-49s15-9,28-19
		c12-11,68-56,123-99c91-73,227-205,330-323c55-62,183-255,242-364c247-459,328-977,233-1480c-137-720-624-1341-1287-1640
		c-617-278-1288-273-1898,15c-448,212-831,589-1054,1037c-34,68-61,126-61,130s-9,25-19,47c-52,111-123,389-142,556
		c-15,129-14,408,1,538c66,562,363,1104,805,1466c55,45,123,98,150,117c28,19,52,37,53,42c2,4,7,7,12,7c4,0,38,18,75,41
		c84,51,244,127,350,167c44,16,89,33,100,37c11,5,29,10,40,12s31,7,45,13c29,11,104,30,140,36c14,3,63,12,110,20
		C2367,5937,2623,5942,2835,5919z"/>
	<path style="&st0;" d="M3165,5525c-355-43-727-161-1081-345c-144-74-377-215-408-246c-8-8-18-14-23-14c-4,0-19-10-33-23
		s-32-26-40-29c-21-9-184-140-299-242c-120-105-372-362-471-481c-183-218-210-266-218-381c-7-115,20-179,134-322
		c208-257,428-481,654-665c52-43,102-83,110-90c137-119,424-299,665-417c198-97,308-140,585-225c196-60,527-105,770-105h177l59,41
		c163,114,345,290,467,451c54,73,70,108,47,108c-6,0-56-22-113-49c-463-221-957-186-1387,98c-78,51-250,211-327,303
		c-43,52-135,209-172,294c-96,223-140,495-111,694c5,36,11,81,14,100c13,101,67,262,128,385c118,235,334,464,553,586
		c33,18,62,36,65,39c9,9,192,80,250,96c291,80,626,65,874-40c47-20,76-21,76-2s-199,209-290,277c-95,71-196,136-284,183
		c-66,35-73,36-165,35C3318,5538,3226,5532,3165,5525z"/>
	<path style="&st0;" d="M3370,4519c-19-5-42-11-51-13c-45-11-119-42-119-49c0-4-4-6-9-3s-19-2-32-12s-36-24-51-31
		c-69-35-178-145-244-248c-60-93-89-176-110-322c-23-166,8-334,90-485c94-172,289-330,461-373c140-35,245-40,385-18
		c159,26,299,101,419,225c63,65,71,75,71,88c0,7,4,12,8,12c5,0,15,12,23,28c7,15,21,37,31,50c19,26,65,162,76,225c10,57,9,261-1,320
		c-5,27-14,47-21,47s-28-21-46-47c-19-27-42-54-52-61c-9-7-24-19-32-27s-19-15-25-15s-11-4-11-10c0-8-85-37-164-54c-15-4-54-2-85,5
		c-31,6-62,12-69,13c-34,5-132,75-172,123c-94,112-118,238-71,381c13,39,27,72,32,72s9,5,9,10c0,18,121,130,140,130c12,0,14,29,3,31
		c-5,1-19,4-33,6C3667,4527,3403,4528,3370,4519z"/>
	<path style="&st0;" d="M5070,4830c0-11,13-48,29-83c78-171,157-456,193-697c32-220,32-531-1-745c-26-178-67-351-116-494
		c-40-120-42-131-17-131s239,124,407,235c267,177,461,333,659,531c159,159,181,197,174,313c-3,45-12,90-22,111
		c-28,55-306,324-472,456c-83,66-222,168-310,227c-159,106-487,297-511,297C5076,4850,5070,4841,5070,4830z"/>
</g>
</svg>
