<?xml version="1.0" standalone="no"?>
<!DOCTYPE svg PUBLIC "-//W3C//DTD SVG 20010904//EN"
 "http://www.w3.org/TR/2001/REC-SVG-20010904/DTD/svg10.dtd">
<svg version="1.0" xmlns="http://www.w3.org/2000/svg"
 width="640.000000pt" height="640.000000pt" viewBox="0 0 640.000000 640.000000"
 preserveAspectRatio="xMidYMid meet">
<metadata>
Created by potrace 1.14, written by Peter Selinger 2001-2017
</metadata>
<g transform="translate(0.000000,640.000000) scale(0.100000,-0.100000)"
fill="#000000" stroke="none">
<path d="M2475 6394 c-33 -2 -154 -8 -270 -14 -570 -30 -1195 -129 -1560 -249
-318 -104 -530 -237 -611 -383 l-29 -53 -3 -535 c-4 -583 -2 -606 51 -699 200
-355 956 -601 2157 -703 383 -32 1064 -32 1450 0 1302 110 2071 391 2196 801
11 37 14 150 14 571 0 595 2 576 -80 678 -148 183 -477 324 -1015 436 -268 56
-725 113 -1085 136 -166 11 -1088 21 -1215 14z m1085 -283 c58 -5 130 -12 160
-15 30 -3 102 -10 160 -16 226 -22 585 -85 780 -136 388 -102 663 -245 663
-344 0 -95 -262 -235 -626 -334 -302 -82 -624 -131 -1152 -176 -197 -17 -747
-23 -1010 -11 -503 23 -1011 92 -1345 182 -385 104 -650 243 -650 342 0 33 41
78 116 127 306 200 1061 357 1889 394 142 6 907 -4 1015 -13z"/>
<path d="M73 3991 c-75 -35 -73 -22 -73 -533 0 -350 3 -465 14 -504 57 -214
338 -413 771 -548 562 -174 1237 -263 2091 -273 l420 -6 35 31 c19 16 51 62
72 101 225 433 622 750 1097 879 231 63 512 72 758 27 96 -18 259 -70 361
-114 48 -22 85 -31 122 -31 48 0 55 3 91 40 l38 41 0 407 c0 385 -1 409 -19
436 -27 40 -57 55 -114 56 -39 0 -66 -10 -150 -54 -321 -171 -792 -306 -1310
-376 -81 -11 -158 -22 -170 -25 -64 -15 -602 -57 -869 -67 -237 -9 -379 -9
-615 0 -287 11 -761 49 -898 72 -33 5 -107 16 -165 24 -509 71 -955 201 -1290
374 -119 62 -143 67 -197 43z"/>
<path d="M4805 2930 c-332 -23 -641 -163 -894 -405 -223 -213 -372 -494 -427
-805 -18 -103 -20 -361 -4 -480 49 -357 260 -715 555 -941 181 -138 385 -230
612 -276 112 -22 441 -25 553 -4 431 79 813 354 1022 736 133 245 185 473 174
770 -7 212 -33 336 -108 515 -105 255 -297 490 -526 643 -196 132 -454 227
-654 241 -168 13 -195 13 -303 6z m830 -940 c24 0 83 -59 90 -90 16 -71 16
-70 -488 -574 -264 -265 -492 -489 -506 -498 -15 -11 -45 -18 -71 -18 l-44 0
-233 232 c-153 153 -236 243 -243 264 -18 55 26 128 92 153 54 20 85 0 253
-169 101 -101 167 -160 180 -160 13 0 166 146 445 425 412 413 457 452 498
439 8 -2 20 -4 27 -4z"/>
<path d="M75 2396 c-16 -7 -39 -23 -50 -36 -19 -21 -20 -38 -23 -487 -2 -404
0 -473 13 -521 87 -298 559 -540 1345 -688 450 -85 888 -123 1492 -131 l448
-6 40 40 c36 37 40 45 40 93 0 36 -9 73 -31 121 -115 264 -157 518 -136 836
12 181 8 200 -48 235 -25 15 -52 18 -175 18 -495 1 -1189 58 -1575 130 -55 10
-118 21 -140 25 -101 16 -395 89 -530 132 -145 45 -338 124 -463 189 -127 66
-156 73 -207 50z"/>
</g>
</svg>
