<?xml version="1.0" encoding="utf-8"?>
<!-- Generator: Adobe Illustrator 21.1.0, SVG Export Plug-In . SVG Version: 6.00 Build 0)  -->
<!DOCTYPE svg PUBLIC "-//W3C//DTD SVG 1.1//EN" "http://www.w3.org/Graphics/SVG/1.1/DTD/svg11.dtd" [
	<!ENTITY st0 "fill:#86C724;">
]>
<svg version="1.1" id="Слой_1" xmlns="http://www.w3.org/2000/svg" xmlns:xlink="http://www.w3.org/1999/xlink" x="0px" y="0px"
	 viewBox="0 0 488 488" style="enable-background:new 0 0 488 488;" xml:space="preserve">
<g transform="translate(0.000000,488.000000) scale(0.100000,-0.100000)">
	<path style="&st0;" d="M2337,4812c-162-152-322-259-562-377c-93-46-195-93-225-103c-122-43-148-51-230-75c-150-45-296-73-520-102
		c-25-3-121-10-215-15c-206-11-208-12-222-137c-12-119-9-662,6-788c72-633,195-1074,430-1545C1139,991,1637,463,2320,57
		c53-31,107-57,121-57c40,0,345,190,529,330c680,517,1161,1233,1389,2065c126,458,181,916,166,1375c-3,118-10,239-14,268
		c-12,88-17,90-232,102c-400,22-749,101-1072,245c-269,119-471,248-660,423C2445,4903,2434,4903,2337,4812z M3707,3397
		c115-115,153-158,153-177c0-36-1853-1890-1889-1890c-18,0-126,102-443,418c-396,394-458,461-458,492c0,8,68,82,152,167
		c117,118,158,153,178,153s82-57,290-265c146-146,272-265,280-265s357,342,775,760c581,581,766,760,784,760S3595,3508,3707,3397z"/>
</g>
</svg>
