<?xml version="1.0" standalone="no"?>
<!DOCTYPE svg PUBLIC "-//W3C//DTD SVG 20010904//EN"
 "http://www.w3.org/TR/2001/REC-SVG-20010904/DTD/svg10.dtd">
<svg version="1.0" xmlns="http://www.w3.org/2000/svg"
 width="579.000000pt" height="579.000000pt" viewBox="0 0 579.000000 579.000000"
 preserveAspectRatio="xMidYMid meet">
<metadata>
Created by potrace 1.14, written by Peter Selinger 2001-2017
</metadata>
<g transform="translate(0.000000,579.000000) scale(0.100000,-0.100000)"
fill="#000000" stroke="none">
<path d="M1174 5407 c41 -165 54 -620 23 -847 -77 -575 -348 -1162 -747 -1620
-173 -199 -304 -422 -369 -630 -154 -486 -70 -1010 227 -1424 112 -154 273
-309 434 -413 73 -47 160 -93 176 -93 6 0 -1 28 -15 62 -93 229 -61 525 79
725 22 32 100 119 172 193 266 273 403 529 462 865 7 38 7 37 19 -40 31 -206
127 -428 269 -625 33 -47 117 -143 186 -215 178 -184 224 -256 266 -423 42
-165 28 -353 -38 -494 -12 -27 -19 -51 -15 -54 10 -11 172 82 274 156 316 233
539 583 624 980 19 89 23 137 23 310 1 227 -15 334 -76 515 -69 204 -168 374
-333 572 -121 145 -186 237 -270 384 -187 325 -311 711 -360 1122 -10 82 -24
76 -41 -18 -9 -53 -59 -196 -133 -385 -68 -172 -116 -327 -127 -410 -7 -54 -8
-51 -35 112 -100 592 -276 1073 -581 1586 -73 123 -108 163 -94 109z"/>
<path d="M2866 3482 c-11 -19 119 -209 253 -367 98 -116 199 -267 260 -389
l44 -86 221 0 c122 0 237 5 256 10 41 11 94 61 109 103 7 18 11 138 11 318 0
314 -1 318 -57 371 -15 15 -41 32 -56 37 -33 13 -1033 16 -1041 3z"/>
<path d="M4435 3476 c-37 -17 -80 -62 -94 -99 -17 -44 -15 -589 3 -630 20 -49
78 -95 128 -102 24 -3 298 -5 609 -3 l565 3 37 25 c20 13 45 41 56 61 20 35
21 53 21 335 0 291 -1 300 -23 338 -14 25 -39 48 -66 63 l-44 23 -581 0 c-463
-1 -587 -3 -611 -14z"/>
<path d="M3530 2352 c0 -9 11 -66 24 -126 44 -193 53 -395 29 -643 l-6 -63
1022 0 c835 0 1028 2 1054 14 43 17 95 78 102 118 3 18 5 162 3 319 l-3 286
-29 37 c-16 21 -47 47 -70 57 -39 18 -87 19 -1083 19 -991 0 -1043 -1 -1043
-18z"/>
<path d="M3500 1224 c-6 -14 -10 -29 -10 -33 0 -19 -84 -211 -126 -289 -85
-157 -231 -358 -328 -451 -20 -19 -36 -39 -36 -43 0 -4 203 -8 450 -8 490 0
490 0 541 56 15 16 31 44 38 63 14 43 15 561 1 610 -13 46 -65 99 -110 111
-19 5 -119 10 -223 10 l-187 0 -10 -26z"/>
<path d="M4457 1236 c-49 -18 -64 -32 -88 -77 -18 -35 -19 -62 -19 -341 l0
-303 25 -37 c13 -20 44 -45 68 -57 43 -21 54 -21 621 -21 556 0 578 1 616 20
21 11 51 36 67 57 l28 36 3 276 c2 152 1 295 -3 318 -8 53 -46 100 -100 124
-37 17 -78 19 -610 18 -451 0 -578 -3 -608 -13z"/>
</g>
</svg>
