<?xml version="1.0" encoding="utf-8"?>
<!-- Generator: Adobe Illustrator 19.0.0, SVG Export Plug-In . SVG Version: 6.00 Build 0)  -->
<svg version="1.1" id="Layer_1" xmlns="http://www.w3.org/2000/svg" xmlns:xlink="http://www.w3.org/1999/xlink" x="0px" y="0px"
	 viewBox="0 0 76 32" style="enable-background:new 0 0 76 32;" xml:space="preserve">
<style type="text/css">
	.st0{fill:none;stroke:#000000;stroke-width:2;stroke-miterlimit:10;}
	.st1{fill:#87C540;}
	.st2{fill:#86C440;}
</style>
<line id="XMLID_1_" class="st0" x1="0" y1="1" x2="76" y2="1"/>
<line id="XMLID_2_" class="st0" x1="0" y1="31" x2="76" y2="31"/>
<line id="XMLID_3_" class="st0" x1="1" y1="0" x2="1" y2="32"/>
<g id="XMLID_8_">
	<path id="XMLID_9_" class="st1" d="M19.2,14h-0.4v-1.9c0-3.5-2.8-6.4-6.2-6.5c-0.1,0-0.3,0-0.4,0c-3.5,0.1-6.2,3-6.2,6.5V14H5.5
		c-0.6,0-1.1,0.6-1.1,1.4v9.5c0,0.8,0.5,1.4,1.1,1.4h13.7c0.6,0,1.1-0.6,1.1-1.4v-9.5C20.3,14.6,19.8,14,19.2,14z M16.1,14h-3.6
		h-0.4H8.6v-1.9c0-2.1,1.7-3.8,3.8-3.8s3.8,1.7,3.8,3.8L16.1,14L16.1,14z"/>
</g>
<g id="XMLID_7_">
	<path id="XMLID_10_" class="st2" d="M24.6,10.7h1.5v5.1h0c0.2-0.4,0.6-0.8,1.1-1.1c0.4-0.3,1-0.4,1.5-0.4c1.1,0,2.9,0.7,2.9,3.5
		v4.9h-1.5v-4.7c0-1.3-0.5-2.5-1.9-2.5c-1,0-1.7,0.7-2,1.5c-0.1,0.2-0.1,0.4-0.1,0.7v5h-1.5V10.7z"/>
	<path id="XMLID_12_" class="st2" d="M35.7,12.2v2.4h2.1v1.1h-2.1v4.4c0,1,0.3,1.6,1.1,1.6c0.4,0,0.7-0.1,0.9-0.1l0.1,1.1
		c-0.3,0.1-0.7,0.2-1.3,0.2c-0.7,0-1.3-0.2-1.6-0.6c-0.4-0.4-0.6-1.2-0.6-2.1v-4.5H33v-1.1h1.3v-2L35.7,12.2z"/>
	<path id="XMLID_14_" class="st2" d="M41.4,12.2v2.4h2.1v1.1h-2.1v4.4c0,1,0.3,1.6,1.1,1.6c0.4,0,0.7-0.1,0.9-0.1l0.1,1.1
		c-0.3,0.1-0.7,0.2-1.3,0.2c-0.7,0-1.3-0.2-1.6-0.6c-0.4-0.4-0.6-1.2-0.6-2.1v-4.5h-1.3v-1.1h1.3v-2L41.4,12.2z"/>
	<path id="XMLID_16_" class="st2" d="M45.2,17.2c0-1.1,0-1.9-0.1-2.7h1.3l0.1,1.4h0c0.6-1,1.6-1.6,2.9-1.6c2,0,3.5,1.7,3.5,4.2
		c0,3-1.8,4.4-3.7,4.4c-1.1,0-2-0.5-2.5-1.3h0v4.5h-1.5V17.2z M46.7,19.4c0,0.2,0,0.4,0.1,0.6c0.3,1,1.2,1.8,2.2,1.8
		c1.6,0,2.5-1.3,2.5-3.2c0-1.7-0.9-3.1-2.5-3.1c-1,0-2,0.7-2.3,1.9c-0.1,0.2-0.1,0.4-0.1,0.6V19.4z"/>
	<path id="XMLID_19_" class="st2" d="M54.7,21.3c0.4,0.3,1.2,0.6,2,0.6c1.1,0,1.6-0.5,1.6-1.2c0-0.7-0.4-1.1-1.5-1.5
		c-1.5-0.5-2.2-1.3-2.2-2.3c0-1.3,1.1-2.4,2.8-2.4c0.8,0,1.6,0.2,2,0.5L59,16c-0.3-0.2-0.9-0.5-1.7-0.5c-0.9,0-1.4,0.5-1.4,1.1
		c0,0.7,0.5,1,1.6,1.4c1.4,0.5,2.2,1.3,2.2,2.5c0,1.4-1.1,2.5-3.1,2.5c-0.9,0-1.7-0.2-2.3-0.6L54.7,21.3z"/>
	<path id="XMLID_21_" class="st2" d="M61.3,15.9c0-0.6,0.4-1.1,1-1.1s1,0.4,1,1.1c0,0.6-0.4,1.1-1,1.1C61.7,17,61.3,16.5,61.3,15.9z
		 M61.3,21.9c0-0.6,0.4-1.1,1-1.1s1,0.4,1,1.1c0,0.6-0.4,1.1-1,1.1C61.7,23,61.3,22.5,61.3,21.9z"/>
	<path id="XMLID_24_" class="st2" d="M63.9,23.5l4.7-12.3h1.2L65,23.5H63.9z"/>
	<path id="XMLID_26_" class="st2" d="M69.7,23.5l4.7-12.3h1.2l-4.8,12.3H69.7z"/>
</g>
<g id="XMLID_5_">
</g>
<g id="XMLID_28_">
</g>
<g id="XMLID_29_">
</g>
<g id="XMLID_30_">
</g>
<g id="XMLID_31_">
</g>
<g id="XMLID_32_">
</g>
</svg>
