<?xml version="1.0" standalone="no"?>
<!DOCTYPE svg PUBLIC "-//W3C//DTD SVG 20010904//EN"
 "http://www.w3.org/TR/2001/REC-SVG-20010904/DTD/svg10.dtd">
<svg version="1.0" xmlns="http://www.w3.org/2000/svg"
 width="621.000000pt" height="621.000000pt" viewBox="0 0 621.000000 621.000000"
 preserveAspectRatio="xMidYMid meet">
<metadata>
Created by potrace 1.14, written by Peter Selinger 2001-2017
</metadata>
<g transform="translate(0.000000,621.000000) scale(0.100000,-0.100000)"
fill="#000000" stroke="none">
<path d="M5496 6178 c-3 -13 -6 -38 -6 -57 0 -49 -47 -251 -76 -329 -167 -443
-564 -743 -1139 -860 -163 -33 -392 -53 -578 -50 l-167 3 36 50 c82 114 132
250 142 383 14 180 -15 372 -83 557 -38 103 -137 306 -148 302 -5 -1 -19 -36
-32 -77 -74 -251 -223 -455 -433 -593 -74 -49 -219 -126 -302 -161 -165 -69
-410 -185 -499 -236 -288 -165 -509 -366 -636 -579 -48 -81 -131 -269 -122
-278 3 -3 57 7 119 22 551 132 1151 55 1643 -210 570 -308 991 -839 1154
-1457 59 -224 74 -350 75 -598 0 -200 -3 -242 -27 -375 -15 -82 -31 -165 -36
-182 -9 -31 -8 -33 15 -33 45 0 209 60 291 106 318 181 562 614 672 1195 11
57 29 160 40 229 35 215 86 347 209 545 173 277 296 399 457 450 19 6 18 8
-10 31 -64 52 -183 67 -312 39 -100 -21 -205 -64 -350 -141 -340 -180 -443
-222 -573 -231 -61 -5 -78 -3 -88 10 -11 13 -9 23 13 60 57 98 172 203 470
433 237 182 417 414 504 651 65 176 76 247 76 478 -1 229 -8 273 -76 485 -31
96 -180 410 -204 430 -9 8 -14 5 -19 -12z"/>
<path d="M1911 4009 c-444 -43 -893 -259 -1213 -585 -178 -182 -271 -311 -373
-519 -139 -282 -208 -554 -209 -831 -1 -116 0 -122 27 -163 50 -75 147 -101
233 -62 70 32 104 101 104 216 1 146 45 370 106 531 34 91 125 263 182 344
171 243 374 417 637 545 141 69 232 100 395 136 92 21 132 24 315 24 183 0
224 -3 318 -23 341 -74 597 -211 841 -450 332 -326 504 -768 482 -1240 -18
-392 -175 -760 -446 -1045 -238 -251 -515 -406 -862 -483 -111 -25 -143 -28
-323 -28 -168 0 -218 3 -311 22 -332 67 -621 220 -853 452 -39 40 -71 75 -71
78 0 4 16 18 35 31 53 36 92 84 99 125 9 49 -8 107 -42 139 -32 31 -584 273
-644 283 -27 5 -49 0 -84 -16 -38 -19 -51 -32 -70 -74 l-23 -51 19 -160 c11
-88 29 -234 40 -325 24 -192 37 -224 100 -258 62 -33 113 -26 185 24 31 22 62
43 70 49 11 7 40 -16 127 -103 127 -125 190 -177 329 -267 804 -526 1881 -395
2548 311 243 256 400 546 490 899 78 305 75 663 -6 975 -70 269 -205 541 -371
750 -64 81 -235 250 -322 320 -411 328 -929 480 -1459 429z"/>
<path d="M2855 2590 c-88 -43 -275 -135 -415 -204 -253 -124 -255 -125 -324
-124 -57 0 -90 8 -185 45 -425 163 -470 177 -512 169 -53 -10 -99 -43 -116
-83 -19 -48 -13 -125 14 -161 14 -18 109 -71 293 -162 227 -113 275 -141 287
-165 25 -48 65 -86 118 -111 113 -53 246 -10 315 102 14 22 78 64 237 154 120
68 304 173 408 232 105 60 200 120 212 133 54 61 48 157 -13 216 -30 29 -41
33 -97 36 -60 3 -68 0 -222 -77z m-674 -462 c92 -51 103 -158 23 -228 -60 -53
-162 -37 -204 33 -40 65 -18 157 48 195 47 28 84 28 133 0z"/>
</g>
</svg>
