<?xml version="1.0" standalone="no"?>
<!DOCTYPE svg PUBLIC "-//W3C//DTD SVG 20010904//EN"
 "http://www.w3.org/TR/2001/REC-SVG-20010904/DTD/svg10.dtd">
<svg version="1.0" xmlns="http://www.w3.org/2000/svg"
 width="519.000000pt" height="519.000000pt" viewBox="0 0 519.000000 519.000000"
 preserveAspectRatio="xMidYMid meet">
<metadata>
Created by potrace 1.14, written by Peter Selinger 2001-2017
</metadata>
<g transform="translate(0.000000,519.000000) scale(0.100000,-0.100000)"
fill="#000000" stroke="none">
<path d="M2250 4107 c0 -121 2 -136 18 -141 19 -6 100 -21 322 -61 196 -35
407 -74 510 -94 l84 -16 37 -55 c78 -116 179 -279 179 -288 0 -5 -102 -98
-227 -207 -328 -287 -411 -371 -459 -470 l-39 -80 0 -125 c1 -115 3 -131 30
-195 57 -138 129 -246 339 -508 66 -83 115 -152 110 -157 -8 -8 -100 -48 -354
-156 -58 -25 -118 -51 -135 -59 -31 -14 -257 -111 -405 -175 -53 -23 -86 -42
-88 -53 -4 -19 97 -307 107 -307 9 0 130 33 291 80 158 45 272 77 593 166 234
65 278 77 352 99 195 57 222 66 252 84 42 26 81 95 84 151 6 103 13 86 -206
465 -175 302 -215 375 -215 384 0 12 352 322 365 321 6 -1 28 -40 49 -88 61
-136 132 -256 175 -295 37 -33 43 -35 137 -42 104 -8 875 1 957 12 l47 6 0
133 c0 130 -1 134 -22 138 -61 13 -226 48 -338 71 -69 14 -165 35 -215 45 -49
11 -119 24 -155 31 -36 6 -69 15 -73 19 -5 4 -24 50 -43 101 -19 52 -52 141
-74 199 -21 58 -66 179 -100 270 -34 91 -80 217 -102 280 l-41 115 -142 141
c-153 152 -289 267 -365 308 -100 54 -286 72 -871 83 l-369 6 0 -136z"/>
<path d="M4609 4120 c-137 -35 -262 -141 -314 -266 -27 -63 -29 -80 -30 -190
0 -119 0 -121 37 -195 69 -139 168 -220 308 -253 397 -94 709 307 524 671 -45
90 -107 149 -210 200 -69 34 -82 37 -177 39 -56 2 -118 -1 -138 -6z"/>
<path d="M1047 3453 c-4 -3 -7 -53 -7 -110 l0 -103 630 0 631 0 -3 108 -3 107
-621 3 c-341 1 -624 -1 -627 -5z"/>
<path d="M530 2750 l0 -110 630 0 630 0 0 110 0 110 -630 0 -630 0 0 -110z"/>
<path d="M2395 2549 c-49 -43 -148 -125 -219 -182 -71 -56 -165 -131 -210
-167 -45 -36 -325 -258 -623 -494 -389 -307 -543 -434 -543 -448 0 -29 129
-188 152 -188 24 0 1739 951 1745 968 3 7 -1 20 -10 30 -27 31 -117 207 -143
283 -19 54 -28 102 -31 177 -4 66 -10 102 -17 101 -6 0 -51 -36 -101 -80z"/>
<path d="M2 2158 l3 -103 622 -3 623 -2 0 105 0 105 -625 0 -626 0 3 -102z"/>
</g>
</svg>
