<!DOCTYPE svg PUBLIC "-//W3C//DTD SVG 20010904//EN" "http://www.w3.org/TR/2001/REC-SVG-20010904/DTD/svg10.dtd">
<svg version="1.0" xmlns="http://www.w3.org/2000/svg" width="819px" height="376px" viewBox="0 0 8190 3760" preserveAspectRatio="xMidYMid meet">
<g id="layer101" fill="#ff8a01" stroke="none">
 <path d="M964 3747 c-108 -28 -175 -85 -226 -193 -39 -84 -53 -168 -39 -245 38 -219 209 -351 501 -389 88 -11 279 -7 316 7 15 6 16 3 39 -152 38 -251 117 -596 185 -810 56 -174 191 -527 233 -609 27 -53 53 -87 78 -106 37 -26 43 -27 211 -34 95 -3 209 -12 253 -20 93 -16 108 -11 95 36 -5 16 -72 150 -149 297 -202 386 -251 498 -368 846 -67 201 -188 613 -181 620 8 8 225 25 443 35 248 11 370 4 610 -35 179 -29 214 -30 221 -11 12 32 -61 126 -150 192 -121 91 -228 131 -425 159 -207 30 -536 13 -784 -38 -37 -8 -67 -11 -67 -7 0 21 -128 198 -191 265 -58 61 -89 84 -154 116 -148 71 -341 104 -451 76z m272 -318 c98 -37 164 -108 164 -180 0 -66 -63 -99 -189 -99 -119 1 -202 41 -242 116 -44 81 2 157 108 180 63 13 82 11 159 -17z"/>
 <path d="M6012 3156 c-78 -75 -108 -141 -123 -274 -25 -221 28 -565 161 -1032 61 -213 186 -589 263 -792 l45 -118 -179 0 c-316 0 -570 -40 -728 -116 -153 -72 -211 -150 -211 -281 0 -128 53 -226 154 -283 44 -26 61 -30 121 -29 39 0 79 4 90 8 18 7 15 11 -24 30 -24 13 -65 43 -92 68 -84 78 -89 151 -16 227 83 87 232 101 559 52 223 -33 420 -56 478 -56 l46 0 23 -72 c60 -189 106 -221 337 -238 77 -6 157 -15 179 -20 60 -14 95 -13 95 5 0 8 -36 87 -80 175 l-80 160 135 0 c295 0 555 53 721 145 153 86 304 226 304 282 0 14 -3 23 -7 21 -200 -101 -361 -136 -729 -159 -212 -13 -447 -2 -541 26 -154 46 -267 233 -461 765 -124 339 -251 849 -342 1375 -18 99 -33 182 -35 184 -2 2 -31 -22 -63 -53z"/>
 <path d="M3720 2993 c-70 -73 -118 -154 -154 -259 l-21 -65 -63 50 c-76 61 -208 128 -281 141 -68 13 -203 12 -259 0 -100 -23 -184 -86 -237 -176 -37 -62 -82 -207 -95 -303 -19 -139 8 -334 75 -541 35 -108 77 -186 145 -275 44 -57 195 -208 254 -255 160 -125 396 -180 507 -119 54 30 85 74 100 147 11 55 6 118 -27 297 -3 17 8 -2 24 -41 37 -92 84 -172 119 -206 50 -48 65 -50 361 -63 89 -3 122 -2 122 7 0 6 -34 69 -75 139 -268 455 -345 739 -350 1298 -3 293 -3 291 -55 291 -17 0 -44 -20 -90 -67z m-482 -369 c55 -16 185 -76 248 -115 30 -18 31 -22 38 -111 9 -132 34 -315 57 -425 24 -119 23 -124 -6 -43 -26 74 -30 69 -40 -61 -7 -100 -37 -204 -66 -236 -20 -20 -31 -24 -61 -20 -100 13 -266 200 -374 422 -110 226 -125 419 -39 531 57 74 127 91 243 58z"/>
 <path d="M4452 2940 c-73 -162 -71 -513 4 -848 72 -321 210 -674 304 -776 50 -54 90 -66 223 -66 59 0 152 -5 207 -11 56 -6 103 -9 106 -6 3 2 -26 51 -64 108 -38 57 -86 136 -107 174 l-39 70 65 -58 c76 -70 234 -177 303 -207 27 -11 83 -29 125 -40 124 -32 361 -53 361 -32 0 5 -34 67 -75 138 -154 262 -281 531 -314 662 -21 81 -41 239 -41 318 l0 46 -64 -4 c-102 -6 -166 -65 -204 -188 -22 -73 -22 -311 1 -424 9 -44 14 -82 12 -85 -9 -8 -225 218 -287 299 -114 150 -216 342 -343 645 -37 88 -87 198 -110 245 l-43 85 -20 -45z"/>
 <path d="M483 2886 c-116 -29 -235 -106 -321 -208 -116 -138 -168 -311 -158 -528 9 -197 56 -374 137 -516 195 -340 546 -549 804 -479 76 20 170 78 211 128 l28 35 39 -34 c46 -39 67 -44 197 -47 l95 -2 -2 30 c-2 43 -406 984 -436 1018 -84 92 -151 -49 -152 -318 0 -77 3 -173 8 -212 9 -90 -4 -108 -86 -118 -106 -13 -223 51 -330 182 -174 214 -210 428 -106 623 45 85 81 123 150 160 185 98 426 12 723 -259 80 -73 117 -87 124 -49 2 9 -29 72 -68 138 -55 94 -94 145 -172 225 -172 179 -291 235 -508 241 -81 2 -143 -1 -177 -10z"/>
 <path d="M1867 1069 c-31 -24 -51 -88 -42 -132 16 -76 68 -136 168 -193 l42 -24 -46 0 c-50 0 -93 -25 -104 -61 -7 -21 -7 -20 -33 4 -45 41 -87 57 -152 57 -51 0 -65 -4 -85 -25 -17 -16 -25 -35 -25 -58 0 -31 42 -255 56 -299 4 -13 0 -18 -15 -18 -17 0 -21 -6 -21 -34 0 -29 6 -38 37 -57 21 -13 58 -24 88 -27 88 -7 91 10 40 251 -34 162 -31 174 39 133 41 -24 45 -30 51 -74 18 -129 66 -223 143 -277 41 -28 50 -30 125 -29 45 1 91 1 102 1 93 -2 114 -1 121 6 4 4 -11 95 -35 203 -23 108 -40 198 -39 200 2 1 22 -11 46 -27 23 -16 47 -29 52 -29 6 0 10 -3 10 -7 0 -5 11 -59 24 -120 23 -109 23 -113 5 -113 -15 0 -19 -7 -19 -34 0 -29 6 -38 35 -56 63 -39 165 -40 165 -1 0 17 3 17 47 -5 58 -30 125 -32 152 -5 34 34 34 77 2 231 -17 80 -27 148 -22 153 9 9 61 -14 78 -35 6 -7 16 -44 21 -81 20 -126 91 -241 169 -273 18 -8 62 -14 98 -14 61 0 69 3 97 30 28 29 30 35 26 86 -6 75 -44 126 -143 193 -44 29 -80 58 -80 64 0 5 12 19 27 30 27 20 29 20 82 4 31 -10 73 -34 99 -57 25 -22 49 -40 55 -40 5 0 12 -22 16 -49 14 -108 102 -227 186 -252 20 -6 62 -9 93 -8 53 4 56 3 62 -21 3 -14 8 -32 11 -41 3 -11 -3 -18 -16 -22 -14 -4 -20 -13 -20 -35 0 -49 48 -77 130 -77 l65 0 3 37 c2 21 -20 146 -47 278 -28 132 -51 249 -51 260 0 26 16 26 32 0 15 -24 50 -26 68 -5 22 26 -4 90 -48 120 -29 20 -49 25 -98 25 -51 0 -64 -4 -84 -24 l-23 -25 -36 25 c-28 19 -48 24 -97 24 -71 0 -106 -20 -125 -75 l-12 -34 -40 35 c-57 48 -133 74 -218 74 -76 0 -115 -14 -147 -55 -19 -24 -20 -24 -37 -5 -32 36 -97 60 -162 60 -104 0 -118 -41 -79 -225 14 -66 26 -128 26 -137 0 -25 -24 -22 -54 5 -20 18 -30 48 -55 165 -17 79 -36 152 -41 163 -13 23 -43 31 -101 27 -39 -3 -44 -6 -47 -29 l-3 -26 -50 26 c-48 25 -50 28 -75 111 -34 111 -73 186 -121 232 -48 47 -79 58 -157 58 -49 0 -69 -5 -89 -21z m129 -114 c24 -24 74 -123 74 -146 0 -14 -83 45 -114 81 -54 65 -18 123 40 65z m105 -378 c32 -22 35 -29 61 -147 14 -69 22 -129 18 -134 -12 -12 -63 10 -89 37 -53 58 -86 197 -57 242 20 31 24 31 67 2z m1450 0 c32 -22 35 -29 61 -147 16 -74 23 -129 18 -134 -12 -12 -62 10 -89 37 -53 58 -86 197 -57 242 20 31 24 31 67 2z m-426 -186 c47 -71 29 -124 -23 -68 -24 26 -61 104 -62 130 0 17 2 17 31 -3 16 -12 41 -39 54 -59z"/>
 <path d="M4567 1069 c-31 -24 -51 -88 -42 -132 16 -76 91 -158 180 -199 l29 -13 -43 -5 c-90 -10 -105 -85 -58 -290 23 -100 23 -105 5 -108 -13 -3 -18 -12 -18 -37 0 -28 6 -37 36 -56 43 -26 127 -37 149 -19 22 18 19 57 -16 218 -34 157 -32 174 17 149 27 -14 31 -24 63 -177 29 -137 38 -164 59 -181 26 -20 96 -26 122 -9 15 9 12 30 -54 333 l-23 107 28 0 c33 0 62 36 57 72 -3 21 -7 23 -54 20 l-52 -2 -22 72 c-41 135 -98 221 -171 259 -54 27 -157 27 -192 -2z m129 -114 c28 -28 80 -133 70 -142 -9 -10 -82 43 -110 80 -52 68 -18 120 40 62z"/>
 <path d="M282 704 c-39 -27 -55 -73 -55 -154 0 -135 53 -253 141 -315 40 -27 51 -30 123 -30 l79 0 8 -40 c7 -34 5 -41 -10 -47 -12 -5 -18 -18 -18 -37 0 -48 49 -76 130 -76 l65 0 3 37 c2 20 -20 144 -48 277 -28 132 -50 251 -48 263 4 29 27 28 72 -3 31 -21 35 -30 44 -91 19 -125 90 -242 169 -274 18 -8 62 -14 98 -14 61 0 69 3 97 30 28 29 30 35 26 86 -6 75 -44 126 -143 193 -44 29 -80 58 -80 64 0 5 12 19 27 30 27 20 29 20 82 4 32 -10 73 -34 101 -59 40 -35 55 -42 99 -45 63 -5 86 8 69 37 -19 29 -16 64 7 85 18 16 21 16 44 2 30 -20 42 -53 25 -73 -7 -8 -36 -31 -65 -50 -59 -40 -84 -82 -84 -146 0 -100 69 -158 190 -158 86 0 125 23 135 77 6 40 -7 92 -28 105 -17 11 -105 10 -111 -1 -3 -5 -1 -23 5 -41 9 -26 9 -35 -4 -47 -18 -18 -35 -10 -47 23 -14 36 6 70 61 103 77 48 89 66 89 135 0 122 -65 170 -222 164 -85 -3 -91 -5 -117 -33 l-27 -30 -59 30 c-47 24 -74 31 -137 34 -90 4 -127 -8 -163 -51 l-25 -30 -33 28 c-46 39 -88 54 -150 54 -44 0 -58 -4 -77 -24 l-23 -25 -36 25 c-43 29 -142 34 -179 8z m168 -119 c16 -8 34 -24 39 -34 18 -33 60 -246 51 -255 -12 -12 -62 10 -89 37 -53 58 -86 197 -57 242 19 29 19 29 56 10z m565 -194 c47 -71 29 -124 -23 -68 -24 26 -61 104 -62 130 0 17 2 17 31 -3 16 -12 41 -39 54 -59z"/>
 <path d="M4178 691 c-32 -29 -33 -31 -36 -123 -2 -77 4 -122 36 -268 37 -167 38 -175 20 -182 -29 -12 -20 -66 15 -92 22 -16 43 -21 95 -21 67 0 67 0 70 30 3 26 -8 100 -25 172 -5 23 -5 23 33 7 25 -10 56 -14 87 -11 87 8 123 68 115 188 -7 88 -45 167 -115 237 -67 67 -120 91 -200 92 -55 0 -67 -3 -95 -29z m176 -112 c60 -47 100 -204 62 -242 -15 -15 -20 -15 -45 -3 -40 21 -49 35 -66 107 -18 78 -19 131 -3 147 16 16 21 15 52 -9z"/>
 <path d="M1697 142 c-23 -25 -21 -74 4 -106 17 -22 28 -26 69 -26 60 0 80 18 80 71 0 55 -26 79 -88 79 -35 0 -54 -5 -65 -18z"/>
 </g>

</svg>