<?xml version="1.0" standalone="no"?>
<!DOCTYPE svg PUBLIC "-//W3C//DTD SVG 20010904//EN"
 "http://www.w3.org/TR/2001/REC-SVG-20010904/DTD/svg10.dtd">
<svg version="1.0" xmlns="http://www.w3.org/2000/svg"
 width="616.000000pt" height="284.000000pt" viewBox="0 0 616.000000 284.000000"
 preserveAspectRatio="xMidYMid meet">
<metadata>
Created by potrace 1.15, written by Peter Selinger 2001-2017
</metadata>
<g transform="translate(0.000000,284.000000) scale(0.100000,-0.100000)"
fill="#000000" stroke="none">
<path d="M416 2825 c-3 -8 -12 -12 -21 -9 -8 3 -15 1 -15 -5 0 -6 4 -11 9 -11
6 0 6 -13 -1 -32 -9 -26 -8 -33 7 -45 16 -11 16 -13 3 -13 -9 0 -19 -6 -21
-12 -3 -7 -6 -1 -6 14 -1 25 -4 27 -33 25 -27 -2 -33 -7 -31 -24 1 -12 -4 -24
-13 -27 -10 -4 -13 -2 -8 6 4 7 3 8 -4 4 -7 -4 -12 -13 -12 -20 0 -7 -20 -26
-45 -42 -26 -16 -43 -34 -41 -41 3 -7 1 -14 -4 -14 -6 -1 -15 -2 -22 -3 -6 0
-12 -9 -14 -18 -3 -20 7 -23 22 -8 7 7 11 6 11 -5 0 -8 -9 -15 -19 -15 -12 0
-18 -7 -18 -21 0 -13 4 -18 13 -13 9 6 9 4 1 -7 -10 -12 -10 -47 -4 -162 1
-12 6 -17 15 -13 7 2 19 -2 25 -10 9 -10 9 -14 1 -14 -6 0 -11 -7 -11 -15 0
-8 7 -15 15 -15 8 0 15 6 15 13 0 9 2 9 8 1 10 -16 124 -13 137 4 10 13 45 7
45 -8 0 -4 29 -7 65 -7 57 0 65 3 68 21 4 20 4 20 6 -1 0 -13 6 -23 11 -23 6
0 9 5 8 11 -5 19 36 20 50 1 12 -16 14 -16 28 2 12 17 17 16 16 -4 -1 -10 87
-10 112 0 14 5 26 6 26 1 0 -5 15 -8 33 -7 23 1 32 7 32 19 0 22 9 22 42 0 38
-25 197 -29 188 -5 -5 13 -2 12 14 -2 24 -22 44 -12 35 16 -4 13 -2 18 4 14 5
-3 12 1 16 9 7 20 26 19 26 -1 0 -10 7 -14 23 -12 16 2 22 -2 21 -14 -1 -13 9
-18 40 -22 56 -7 76 -5 76 8 0 7 3 7 8 1 11 -16 29 -15 29 1 0 8 -5 14 -11 15
-6 1 0 4 14 8 33 10 50 3 43 -16 -3 -8 0 -19 8 -24 12 -7 11 -9 -1 -9 -16 0
-70 -55 -70 -71 0 -5 -6 -9 -12 -9 -10 0 -9 -3 1 -9 8 -6 10 -14 5 -22 -13
-22 -14 -43 -1 -51 7 -4 7 -8 2 -8 -6 0 -12 -13 -13 -30 -2 -23 2 -30 16 -30
10 0 24 -9 32 -20 13 -18 25 -21 83 -19 41 1 67 6 67 13 0 7 3 7 8 1 4 -5 13
-11 19 -12 15 -3 13 18 -2 29 -5 4 5 8 24 8 30 0 33 3 29 24 -4 18 -1 23 16
22 12 -1 21 4 21 11 0 15 13 28 28 28 20 0 14 30 -8 37 -19 6 -19 6 2 7 17 1
21 7 21 29 -1 57 1 68 12 52 7 -12 12 -12 22 -2 10 10 10 15 -2 22 -12 8 -9
10 13 10 15 0 27 6 27 13 0 9 3 8 9 -2 7 -11 9 -11 14 0 5 12 6 12 6 0 1 -11
4 -11 18 0 13 11 15 11 9 1 -11 -19 25 -12 42 8 8 8 11 10 8 3 -4 -6 -2 -14 4
-18 5 -3 10 1 10 9 0 9 5 16 11 16 5 0 7 -6 3 -12 -5 -9 -2 -9 9 1 18 15 23
26 7 16 -15 -9 -11 7 7 30 13 16 15 17 10 3 -4 -10 -2 -18 4 -18 6 0 7 -4 4
-10 -3 -5 1 -10 9 -10 9 0 16 -7 16 -16 0 -14 3 -14 15 -4 11 9 15 9 15 1 0
-9 20 -11 64 -9 36 1 62 6 60 10 -3 4 6 12 18 19 22 11 22 11 9 -7 -7 -10 -2
-7 12 8 20 22 28 24 36 14 6 -7 7 -17 3 -22 -4 -4 1 -3 10 4 14 11 16 11 12
-6 -5 -17 2 -19 75 -19 45 -1 81 3 81 8 0 5 7 9 16 9 8 0 12 -4 9 -10 -9 -14
29 -12 43 2 18 18 15 27 -8 23 -12 -2 -18 0 -15 6 4 5 10 7 15 4 4 -3 11 1 13
7 4 10 6 10 6 1 1 -7 10 -13 21 -13 13 0 20 -7 20 -19 0 -18 9 -19 120 -19 99
0 120 2 120 15 0 12 2 12 16 -1 19 -19 49 -22 38 -3 -6 9 -4 9 7 2 8 -5 32
-10 54 -10 37 0 40 2 42 30 1 16 9 35 17 41 9 6 13 14 9 17 -3 4 -1 7 5 7 15
0 16 36 2 45 -8 5 -7 11 0 20 7 8 9 19 6 24 -9 14 -46 9 -46 -7 0 -17 -17 -7
-30 18 -9 16 -6 24 15 42 23 20 36 46 17 34 -4 -2 -8 4 -8 15 0 10 4 19 8 19
10 0 6 30 -6 49 -6 9 -5 12 1 8 5 -4 10 6 10 23 0 18 -4 27 -11 23 -6 -4 -3 3
8 15 10 12 23 20 29 19 12 -2 18 52 8 71 -5 9 -11 5 -20 -14 -6 -15 -14 -25
-16 -22 -9 8 20 58 33 58 7 0 10 5 7 10 -4 6 -11 8 -16 5 -5 -4 -12 1 -15 9
-5 13 -24 16 -94 16 -95 0 -101 -3 -105 -63 -2 -21 1 -25 11 -16 9 8 11 5 7
-10 -3 -12 -10 -18 -17 -14 -6 3 -5 0 2 -8 11 -12 14 -12 22 1 8 12 10 11 10
-5 0 -26 -38 -28 -46 -3 -7 24 -70 20 -68 -5 1 -9 -1 -17 -5 -18 -3 0 -17 -2
-30 -3 -27 -3 -57 -36 -41 -46 5 -3 -3 -20 -20 -38 -32 -36 -37 -33 -34 21 1
26 -3 37 -12 37 -8 0 -14 7 -14 16 0 10 -6 13 -17 10 -22 -7 -38 4 -38 24 0 8
-7 15 -15 15 -8 0 -16 -7 -16 -15 -1 -8 -2 -19 -3 -23 0 -4 -12 5 -26 20 -19
22 -24 24 -25 11 0 -10 -7 -18 -16 -18 -8 0 -13 -4 -10 -9 4 -5 -5 -8 -19 -7
-14 2 -32 -5 -41 -15 -10 -11 -24 -19 -32 -19 -8 0 -12 -6 -9 -14 4 -11 1 -13
-10 -9 -12 5 -15 2 -10 -10 7 -19 -1 -21 -23 -7 -12 8 -12 10 3 16 22 8 22 19
-3 44 -12 12 -20 15 -20 8 0 -10 -2 -10 -8 -1 -4 6 -20 15 -35 18 -15 4 -27
13 -27 21 0 19 -6 18 -30 -6 -11 -11 -29 -20 -40 -20 -11 0 -29 9 -40 20 -24
24 -36 25 -44 4 -4 -10 -2 -13 7 -9 6 4 4 0 -6 -8 -29 -24 -127 -5 -127 23 0
6 -7 10 -15 10 -8 0 -15 -5 -15 -11 0 -5 5 -7 12 -3 7 5 8 3 3 -6 -4 -7 -2
-16 6 -21 11 -7 10 -9 -4 -9 -10 0 -21 10 -25 21 -7 19 -10 20 -23 6 -8 -8
-29 -18 -46 -21 -27 -6 -30 -5 -29 16 1 24 -23 33 -36 13 -5 -6 -8 -6 -8 3 0
20 -27 14 -55 -12 -18 -17 -37 -24 -58 -23 -25 2 -32 -2 -31 -15 1 -10 -2 -18
-8 -18 -5 0 -7 -4 -4 -9 3 -4 -6 -18 -19 -31 -13 -13 -23 -26 -20 -29 2 -4 -7
-7 -20 -7 -23 0 -23 1 -9 18 9 9 21 16 27 15 6 -1 12 5 12 13 0 8 7 14 15 12
8 -2 11 0 7 5 -5 4 -14 8 -20 8 -7 1 -11 7 -9 14 1 7 -2 19 -8 26 -8 9 -8 15
0 20 5 3 10 33 10 66 l0 59 -75 0 c-61 0 -79 -4 -94 -19 -11 -11 -17 -22 -13
-25 3 -3 1 -6 -5 -6 -5 0 -10 -7 -10 -14 0 -11 5 -12 17 -6 11 6 17 5 18 -3 2
-22 7 -42 15 -54 5 -7 4 -13 0 -13 -5 0 -14 9 -21 20 -14 23 -29 26 -29 6 0
-8 4 -14 8 -13 4 1 7 -2 7 -8 1 -5 -6 -9 -14 -7 -8 2 -14 -4 -14 -13 0 -8 -5
-15 -11 -15 -5 0 -8 4 -4 9 3 5 1 12 -5 16 -5 3 -10 1 -10 -4 0 -6 -9 -11 -20
-11 -11 0 -19 5 -18 12 2 7 -3 12 -9 13 -13 0 -16 16 -6 25 4 3 3 -1 -2 -9 -6
-10 -4 -12 4 -7 7 5 10 11 6 14 -8 9 -35 11 -34 4 3 -20 -3 -21 -26 -6 -24 16
-25 16 -26 -7 l-1 -24 -8 25 c-4 14 -8 19 -9 13 -1 -7 -7 -13 -15 -13 -8 0
-16 -7 -20 -15 -3 -10 -14 -14 -30 -11 -21 4 -24 1 -20 -21 3 -14 1 -22 -5
-19 -5 3 -11 -1 -15 -9 -8 -23 -26 -18 -26 7 0 12 -3 19 -6 15 -8 -8 -33 16
-27 26 2 4 -2 7 -11 7 -8 0 -16 5 -18 12 -3 8 -11 7 -28 -5 -23 -16 -25 -16
-37 6 -10 18 -12 19 -13 4 0 -10 -4 -16 -10 -12 -5 3 -7 12 -3 20 8 22 -5 18
-30 -9 -14 -15 -30 -22 -46 -19 -32 5 -48 -11 -49 -49 0 -17 -7 -35 -16 -40
-8 -4 -17 -22 -21 -38 -4 -17 -13 -30 -21 -30 -19 0 -18 19 1 26 11 5 12 11 4
25 -5 10 -6 19 -2 19 4 0 9 34 10 75 1 46 -2 73 -7 70 -6 -3 -7 1 -3 10 3 10
8 12 12 7 4 -7 13 -5 25 4 19 14 19 14 -2 14 -13 0 -22 6 -22 15 0 8 5 15 10
15 6 0 10 5 10 10 0 6 -36 10 -89 10 -69 0 -90 -3 -95 -15z"/>
<path d="M3120 2832 c0 -4 6 -14 13 -21 10 -10 9 -12 -3 -9 -8 2 -19 8 -23 13
-4 6 -6 -5 -5 -24 3 -35 28 -57 28 -25 0 22 13 10 15 -14 1 -14 -4 -17 -22
-14 -13 3 -23 -1 -23 -7 0 -7 4 -10 9 -6 17 10 21 -11 6 -31 -18 -24 -19 -38
-2 -28 7 5 6 0 -3 -11 -14 -17 -13 -18 5 -12 20 7 20 7 1 -8 -18 -14 -15 -20
7 -16 5 1 7 -4 4 -11 -2 -7 -10 -12 -16 -10 -14 3 -12 -66 3 -88 6 -8 7 -12 2
-8 -4 3 -16 -1 -27 -10 -21 -18 -26 -39 -6 -26 7 5 5 2 -5 -8 -10 -9 -18 -30
-18 -47 0 -24 4 -31 20 -31 15 0 20 -7 20 -25 0 -14 5 -25 11 -25 8 0 8 -5 -1
-15 -10 -12 -9 -15 4 -15 11 0 15 -5 10 -12 -6 -10 -4 -10 7 0 16 15 29 16 29
1 0 -5 -4 -7 -10 -4 -5 3 -10 2 -10 -3 0 -14 26 -22 71 -22 32 0 41 4 49 23 9
22 9 22 10 -3 1 -23 2 -23 10 -5 l9 20 1 -20 c1 -19 2 -18 10 3 5 12 16 22 25
22 14 0 20 12 16 33 -1 5 3 6 9 2 5 -3 10 -2 10 4 0 5 10 11 23 13 13 2 22 10
21 20 -1 10 4 14 12 11 7 -2 10 -11 7 -19 -3 -9 2 -14 16 -14 23 0 28 -14 9
-26 -7 -5 -8 -3 -3 6 5 8 3 11 -6 8 -20 -7 -17 -33 4 -32 9 1 17 -1 18 -5 0
-3 2 -14 4 -23 2 -10 -1 -18 -6 -18 -6 0 -8 -3 -6 -7 5 -8 -17 -34 -28 -33
-38 1 -45 -2 -45 -20 0 -11 5 -20 10 -20 7 0 7 -6 1 -19 -11 -20 -11 -121 -1
-121 4 0 6 -10 6 -22 -1 -18 4 -23 22 -22 12 0 22 -2 22 -6 0 -4 41 -8 90 -8
73 -1 90 1 90 13 0 8 18 32 40 54 34 33 40 46 40 81 0 34 4 43 20 47 11 3 19
12 18 21 -2 10 7 18 22 22 22 5 23 7 7 13 -10 4 -16 11 -13 16 9 14 41 6 41
-9 0 -7 6 -15 13 -18 9 -3 12 3 10 14 -2 13 4 20 19 22 24 3 29 42 6 42 -7 0
-13 9 -13 20 0 17 -13 24 -40 22 -3 0 -6 7 -7 16 -1 9 -4 29 -7 44 -3 20 1 32
17 45 18 15 22 29 22 73 0 43 5 60 22 76 21 22 24 38 10 61 -4 6 -1 14 5 16 7
3 1 6 -14 6 -25 1 -33 10 -29 34 0 4 -3 7 -9 7 -5 0 -11 -8 -11 -17 -1 -10 -5
-4 -9 12 -5 22 -8 24 -9 9 -2 -31 -12 -36 -34 -17 -11 10 -18 13 -14 8 3 -6
-3 -16 -14 -23 -11 -7 -19 -8 -19 -2 0 5 -10 9 -22 9 -13 0 -40 2 -60 6 -21 4
-38 4 -38 -1 0 -5 -19 -9 -42 -8 -24 1 -46 -4 -50 -10 -5 -8 -13 -7 -28 2 -19
12 -22 11 -27 -8 l-6 -21 -22 21 c-14 13 -34 21 -52 20 -43 -3 -55 -1 -48 10
3 5 13 6 21 3 13 -5 15 -1 9 17 -4 13 -3 20 2 17 5 -4 10 1 10 9 0 9 -6 13
-16 10 -14 -5 -14 -4 0 6 15 10 15 13 -5 31 -11 10 -15 16 -8 12 7 -4 12 0 12
9 0 13 -14 16 -79 16 -54 0 -81 -4 -84 -12 -4 -10 -6 -10 -6 0 -1 13 -31 17
-31 4z"/>
<path d="M4041 2681 c-11 -11 -25 -21 -31 -21 -5 0 -9 -4 -7 -9 1 -5 -2 -9 -7
-9 -5 0 -12 -6 -17 -14 -5 -7 -14 -13 -21 -13 -8 0 -14 -13 -14 -32 -3 -67 -3
-69 -14 -53 -7 12 -12 12 -22 2 -10 -10 -10 -15 2 -22 8 -5 10 -10 5 -10 -6 0
-12 -22 -13 -50 -1 -28 2 -50 8 -50 5 0 10 -5 10 -11 0 -5 -4 -7 -10 -4 -15 9
-12 -38 4 -60 12 -17 16 -18 32 -5 16 12 17 12 7 0 -7 -8 -13 -24 -13 -37 0
-18 6 -23 24 -23 13 0 29 -7 36 -15 7 -8 21 -15 31 -15 19 0 35 -17 24 -28 -3
-3 -10 0 -14 7 -6 10 -10 10 -16 1 -10 -16 1 -24 36 -26 17 -1 38 -11 49 -24
11 -13 23 -20 27 -16 4 4 1 11 -7 16 -11 7 -12 12 -3 21 8 8 17 5 34 -13 26
-26 69 -34 81 -15 6 9 8 9 8 -1 0 -7 4 -10 10 -7 6 4 7 -1 3 -11 -5 -13 -3
-16 10 -11 11 4 14 2 10 -9 -3 -7 0 -14 6 -14 6 0 11 5 11 10 0 6 7 10 16 10
8 0 13 -4 10 -9 -8 -12 77 -8 87 4 5 7 10 7 15 0 11 -16 72 -19 72 -4 0 10 3
10 12 1 8 -8 49 -12 120 -12 87 0 108 -3 108 -14 0 -8 3 -22 6 -30 5 -12 2
-15 -10 -10 -18 7 -36 -30 -36 -72 0 -13 -9 -33 -20 -44 -22 -22 -27 -46 -7
-34 17 11 -13 -28 -35 -44 -24 -18 -23 -31 5 -42 l22 -9 -22 0 c-13 -1 -23 -6
-23 -12 0 -5 4 -8 9 -4 5 3 13 1 16 -5 4 -6 1 -9 -6 -8 -7 2 -13 -6 -13 -17
-1 -11 -11 -28 -24 -39 -18 -15 -21 -21 -10 -27 10 -7 10 -9 1 -9 -7 0 -12 -3
-12 -7 4 -27 -3 -55 -19 -71 -12 -12 -16 -26 -12 -42 7 -29 -7 -80 -22 -80 -6
0 -8 -7 -4 -15 3 -9 0 -15 -9 -15 -8 0 -15 -4 -15 -9 0 -12 30 -22 42 -14 7 3
8 1 4 -6 -4 -6 -16 -9 -26 -6 -18 6 -19 1 -17 -52 2 -47 -1 -62 -18 -78 -15
-15 -20 -34 -21 -78 -2 -43 -7 -62 -21 -75 -25 -22 -29 -116 -4 -107 8 3 12 3
8 -1 -4 -4 -2 -13 4 -20 8 -10 5 -11 -12 -7 -15 4 -20 2 -15 -5 8 -14 -19 -82
-33 -82 -6 0 -11 -4 -11 -9 0 -6 9 -8 20 -6 11 2 20 0 20 -6 0 -5 -6 -9 -14
-9 -33 0 -31 -55 2 -63 12 -3 11 -5 -5 -6 -22 -1 -23 -5 -23 -69 0 -40 5 -73
12 -80 7 -7 8 -12 2 -12 -18 0 -12 -32 12 -57 12 -13 21 -33 19 -44 -2 -11 0
-17 6 -14 5 4 9 1 9 -5 0 -7 7 -9 16 -6 14 5 15 4 4 -9 -11 -13 -8 -18 10 -17
3 0 5 -10 5 -23 0 -13 -3 -21 -7 -18 -19 11 -5 -18 15 -32 12 -8 22 -21 22
-27 0 -7 12 -13 27 -13 15 -1 27 1 26 4 -3 26 4 40 16 35 8 -3 12 -12 9 -20
-6 -16 13 -19 22 -4 11 17 14 80 4 85 -11 7 9 43 36 66 16 14 17 19 6 33 -7 9
-9 16 -3 16 5 0 9 13 8 29 0 16 -4 27 -8 25 -3 -2 -10 0 -13 6 -4 6 -1 9 6 8
15 -4 18 18 7 50 -6 17 -5 21 4 16 8 -5 9 0 5 15 -3 14 0 24 9 28 8 3 12 9 9
13 -3 5 0 12 6 16 7 4 9 3 5 -4 -3 -6 -3 -13 2 -16 4 -2 8 6 8 19 0 13 -4 21
-8 19 -4 -3 -8 0 -8 5 0 18 5 26 13 23 12 -4 8 33 -5 46 -9 9 -9 12 0 12 7 0
11 15 10 40 -1 21 4 45 10 53 7 8 8 17 4 21 -4 4 0 6 8 4 12 -2 15 7 14 44 0
39 3 49 23 59 24 13 31 29 13 29 -7 0 -7 7 0 20 6 11 8 24 5 29 -3 5 0 22 5
37 8 19 8 29 0 34 -6 4 0 12 15 20 26 14 36 60 13 60 -9 0 -8 4 2 10 13 9 13
10 0 10 -10 0 -11 3 -4 8 6 4 10 17 9 29 -1 17 1 20 11 12 23 -19 31 -2 30 61
-1 34 3 64 8 67 5 3 6 1 2 -5 -4 -7 -3 -12 2 -12 17 0 31 25 30 55 -1 57 2 65
22 65 22 0 29 34 10 45 -7 4 -3 14 10 25 12 10 22 22 23 27 1 4 5 7 9 6 4 -2
6 20 5 47 0 32 5 55 15 67 9 10 18 29 20 43 2 20 8 24 26 22 20 -3 22 0 19 25
-4 29 17 83 33 83 5 0 21 12 37 28 15 15 33 26 41 24 8 -2 12 4 10 15 -2 13 4
19 25 21 15 2 27 8 27 13 0 7 6 7 17 0 13 -7 23 -5 37 7 11 9 16 11 12 4 -10
-17 24 -28 35 -11 5 8 9 10 9 5 0 -6 7 -1 15 10 14 18 14 18 8 -3 -5 -20 -1
-23 26 -23 24 0 31 4 31 19 0 11 4 22 9 25 5 3 8 -2 7 -11 -1 -21 59 -29 80
-12 11 9 14 8 14 -5 0 -12 10 -16 45 -16 27 0 45 5 45 11 0 8 4 8 14 0 18 -15
59 -10 68 9 6 13 7 13 7 0 1 -12 14 -16 64 -15 34 0 68 4 76 9 10 7 12 6 6 -4
-6 -10 -4 -12 8 -7 9 3 19 2 22 -4 4 -5 10 -7 15 -4 5 3 11 1 14 -4 7 -11 -13
-9 -34 4 -11 6 -10 3 2 -11 22 -25 55 -28 61 -6 4 14 5 14 6 -2 1 -15 6 -17
31 -13 22 5 32 2 39 -11 5 -9 13 -17 18 -17 4 0 7 -3 5 -8 -1 -4 9 -5 22 -1
13 3 27 1 31 -6 5 -8 10 -8 20 0 10 8 13 7 11 -4 -1 -9 -6 -19 -11 -23 -4 -4
-5 -2 0 6 6 10 4 12 -4 7 -14 -9 -7 -19 14 -22 8 -1 13 1 10 6 -3 5 2 15 10
23 20 21 21 107 0 107 -11 0 -13 8 -8 30 4 25 2 30 -14 30 -10 0 -25 9 -33 20
-8 11 -18 20 -22 20 -4 0 -17 9 -29 21 -11 11 -27 18 -35 15 -22 -9 -43 4 -37
22 5 11 2 14 -10 9 -9 -3 -17 -2 -17 3 0 6 -9 10 -20 10 -11 0 -20 5 -20 11 0
6 -7 9 -14 6 -10 -4 -13 -1 -9 9 6 17 -18 19 -34 3 -8 -8 -13 -8 -17 0 -4 6
-14 11 -22 11 -9 0 -12 -5 -8 -12 4 -7 3 -8 -4 -4 -7 4 -12 14 -12 23 0 9 -6
13 -14 10 -10 -4 -13 -1 -10 7 4 10 -9 13 -53 12 -32 -1 -64 -5 -70 -9 -8 -5
-13 -3 -13 3 0 6 -8 10 -17 8 -10 -2 -28 6 -40 19 -23 24 -43 30 -43 12 0 -5
5 -7 11 -3 8 5 8 1 0 -14 -12 -23 -42 -20 -63 6 -10 12 -10 14 0 8 6 -4 12 -2
12 3 0 6 -9 11 -20 11 -14 0 -20 -7 -20 -22 -1 -21 -2 -21 -11 -5 -5 9 -21 17
-35 17 -21 0 -24 -4 -19 -20 4 -11 2 -20 -4 -20 -6 0 -11 11 -11 24 0 14 -4
28 -10 31 -6 4 -5 11 3 19 6 8 15 12 19 10 4 -3 8 15 10 38 3 37 6 43 28 46
14 2 31 9 38 14 15 13 16 32 0 22 -7 -5 -8 -3 -2 7 14 23 15 50 1 63 -16 16
-228 18 -240 2 -6 -8 -10 -7 -14 2 -7 17 -26 15 -19 -3 3 -9 0 -15 -10 -15 -8
0 -12 5 -9 10 3 6 -1 13 -11 17 -11 4 -23 -2 -36 -17 -14 -17 -28 -23 -53 -22
-31 1 -35 -2 -35 -23 0 -16 -6 -25 -15 -25 -8 0 -15 -7 -15 -15 0 -8 -5 -15
-11 -15 -5 0 -8 -3 -6 -7 6 -10 -19 -34 -26 -27 -3 3 -4 -5 -3 -18 3 -25 -59
-95 -69 -78 -6 10 -114 9 -112 -1 1 -4 -2 -7 -7 -7 -5 0 -12 -6 -16 -12 -4 -7
-30 -13 -56 -14 -27 -1 -54 -4 -60 -8 -6 -4 -14 -4 -18 0 -14 13 -66 9 -66 -5
0 -8 -5 -11 -10 -8 -6 4 -8 10 -6 14 3 4 -6 8 -20 9 -14 1 -23 -3 -21 -11 1
-6 -4 -11 -12 -9 -8 2 -11 -3 -8 -11 4 -11 -3 -13 -34 -10 -25 3 -39 1 -39 -7
0 -6 -4 -9 -9 -6 -5 4 -12 0 -14 -6 -3 -8 -6 -6 -6 5 -1 13 -10 17 -46 17 -27
0 -45 -5 -45 -11 0 -8 -5 -8 -15 1 -8 7 -22 10 -30 6 -9 -3 -13 -2 -10 4 3 6
-1 10 -9 10 -9 0 -16 8 -16 18 0 14 -2 15 -10 2 -5 -8 -10 -10 -10 -4 0 6 -7
11 -15 11 -17 0 -20 -13 -5 -20 6 -3 5 -4 -2 -3 -7 2 -12 13 -11 25 2 13 -3
21 -12 21 -8 0 -15 5 -15 11 0 5 5 7 10 4 18 -11 11 4 -12 25 l-22 20 26 0
c20 0 27 6 30 23 2 12 10 22 18 22 8 0 16 6 16 13 4 41 6 46 11 35 2 -7 16
-13 30 -13 18 0 24 4 20 14 -4 10 -1 13 9 9 7 -3 14 0 14 6 0 6 -5 11 -11 11
-8 0 -8 4 0 14 6 7 10 24 8 37 -4 22 -8 24 -70 24 -37 0 -67 -3 -67 -8 0 -4
-9 -3 -20 3 -15 8 -20 8 -20 -2 0 -10 -2 -10 -9 1 -7 11 -13 9 -30 -8z"/>
<path d="M499 1985 c-21 -35 -33 -46 -23 -22 3 8 -6 13 -26 15 -24 2 -30 -2
-30 -17 0 -11 6 -22 13 -24 6 -3 -5 -3 -26 -1 -38 4 -67 -11 -67 -36 0 -7 -8
-9 -20 -5 -22 7 -25 -2 -10 -25 6 -10 10 -11 10 -2 0 6 5 12 11 12 8 0 7 -5
-2 -16 -8 -9 -21 -13 -35 -10 -28 7 -40 -9 -23 -30 10 -12 9 -13 -5 -8 -19 7
-49 -14 -42 -31 2 -7 -4 -12 -17 -11 -16 1 -22 -4 -21 -20 1 -17 -4 -20 -22
-16 -19 3 -24 0 -24 -17 0 -11 -5 -21 -11 -21 -6 0 -9 -7 -6 -14 4 -10 1 -13
-9 -9 -16 6 -20 -12 -4 -22 5 -3 10 -11 10 -17 0 -6 -3 -9 -6 -5 -3 3 -17 -5
-30 -18 -17 -17 -23 -32 -20 -50 3 -15 1 -23 -5 -20 -5 4 -6 12 -2 18 3 7 -3
3 -15 -7 -12 -11 -20 -22 -17 -25 4 -3 9 0 13 6 5 8 10 8 18 -1 8 -9 7 -15 -3
-24 -10 -10 -13 -10 -13 0 0 8 -5 6 -11 -5 -5 -9 -7 -22 -4 -27 3 -6 -1 -13
-9 -16 -19 -7 -22 -64 -3 -64 8 0 7 -4 -3 -10 -13 -9 -13 -11 0 -20 10 -6 11
-10 3 -10 -10 0 -13 -37 -13 -150 0 -113 3 -150 13 -150 9 0 8 -3 -2 -9 -11
-7 -11 -9 0 -14 10 -4 10 -6 2 -6 -15 -1 -18 -78 -3 -83 5 -2 11 -21 12 -43 3
-32 7 -40 23 -40 13 0 20 -7 20 -20 0 -12 6 -20 16 -19 10 1 22 -9 28 -22 6
-15 7 -24 1 -24 -6 0 -2 -8 9 -19 11 -11 29 -17 45 -16 14 2 24 0 21 -5 -3 -5
1 -10 7 -13 7 -3 3 -4 -9 -4 -12 1 -19 5 -17 9 3 4 0 8 -5 8 -18 0 -12 -19 9
-30 11 -6 20 -8 20 -5 0 3 9 1 20 -5 11 -6 17 -16 14 -25 -5 -12 1 -14 25 -11
20 2 35 -2 43 -13 12 -14 11 -14 -4 -2 -11 8 -18 9 -18 3 0 -12 31 -32 49 -32
6 0 11 8 11 18 1 15 2 15 10 1 14 -23 330 -27 330 -4 0 8 6 15 13 15 16 0 63
39 60 50 -1 4 16 6 38 5 35 -2 39 0 34 16 -4 11 -2 20 4 20 6 1 17 2 24 3 6 0
12 6 12 13 0 15 13 28 28 28 7 0 12 5 12 12 0 14 13 28 27 28 6 0 12 9 14 19
1 11 10 23 18 28 9 5 16 14 16 20 0 6 -7 5 -17 -3 -16 -12 -17 -12 -6 2 8 10
23 14 43 11 25 -4 30 -1 30 17 0 11 -6 21 -12 21 -9 0 -9 3 1 9 8 5 11 15 8
23 -4 11 1 14 19 10 22 -4 24 -1 25 34 1 22 1 42 1 45 -1 4 7 5 18 2 15 -4 18
0 15 22 -1 15 -9 31 -16 36 -11 7 -10 9 4 9 20 0 23 20 5 38 -18 18 -46 14
-60 -8 -7 -11 -21 -20 -30 -20 -11 0 -18 -8 -18 -20 0 -13 -7 -20 -19 -20 -13
0 -20 -10 -25 -32 -5 -24 -9 -29 -18 -20 -16 16 -39 15 -35 0 1 -7 -4 -12 -10
-11 -7 2 -13 -2 -13 -7 0 -6 -9 -10 -20 -10 -14 0 -20 -7 -20 -23 0 -13 -11
-34 -24 -46 -19 -18 -31 -21 -61 -17 -30 5 -36 3 -32 -9 8 -18 -5 -26 -43 -27
-16 -1 -27 -5 -24 -10 3 -4 1 -8 -5 -8 -5 0 -11 6 -14 13 -3 9 -8 8 -22 -3
-14 -11 -17 -11 -11 -2 7 11 4 12 -13 3 -11 -7 -21 -19 -21 -28 0 -12 -6 -10
-23 9 -18 19 -28 23 -40 16 -11 -6 -17 -5 -17 2 0 5 -5 10 -11 10 -5 0 -7 -6
-3 -12 6 -10 5 -10 -8 -1 -8 7 -18 10 -21 6 -7 -6 -11 11 -8 35 1 8 -6 11 -22
8 -21 -4 -23 -1 -19 20 3 19 0 24 -17 24 -16 0 -21 6 -21 26 0 15 -9 35 -21
45 -14 12 -21 30 -21 56 0 21 -5 41 -11 45 -9 5 -9 10 1 20 16 16 16 45 0 51
-10 4 -10 6 0 6 6 1 12 10 12 21 0 11 4 20 10 20 15 0 34 41 22 49 -6 4 -6 15
-1 29 5 14 13 20 20 16 8 -4 9 -3 5 5 -4 6 0 14 8 17 9 3 14 10 11 14 -3 5 1
12 9 17 8 4 15 13 16 18 1 6 7 9 12 7 6 -2 8 4 4 13 -4 12 0 14 21 9 23 -6 25
-4 21 14 -10 39 17 62 74 62 47 0 50 2 46 23 -4 20 -1 22 39 18 29 -2 43 -8
43 -17 0 -8 7 -17 15 -20 12 -5 12 -9 -2 -31 -13 -20 -14 -26 -4 -33 11 -6 11
-8 0 -12 -12 -4 -12 -7 0 -21 7 -10 9 -17 4 -17 -5 0 -10 -45 -10 -100 -1 -55
3 -100 8 -100 4 0 5 -8 2 -17 -5 -12 -2 -15 10 -10 9 3 17 2 17 -3 0 -6 -10
-10 -22 -10 -21 0 -21 0 -3 -14 11 -8 22 -13 25 -11 3 2 5 -20 5 -48 l0 -51
53 -3 c40 -2 52 1 52 12 0 19 17 28 26 14 4 -8 3 -9 -4 -5 -7 4 -12 2 -12 -3
0 -18 19 -12 30 8 7 13 7 22 0 26 -12 7 -14 26 -2 24 4 -1 10 0 15 1 4 1 12 3
19 4 16 1 21 55 7 72 -8 10 -8 14 0 14 6 0 11 7 11 15 0 8 9 15 20 15 13 0 20
7 20 20 0 11 -5 20 -10 20 -6 0 -9 6 -8 12 4 19 30 37 45 31 8 -3 12 4 11 19
0 12 0 37 1 53 1 23 4 27 11 15 7 -12 12 -12 22 -2 10 10 10 15 -2 22 -8 5
-10 10 -5 10 6 0 3 5 -5 10 -13 8 -12 10 3 10 9 0 17 5 17 11 0 7 7 17 15 23
14 11 23 40 24 84 1 15 7 22 21 22 23 0 27 29 8 48 -9 9 -9 12 1 12 7 0 11 6
8 14 -7 17 27 69 38 59 4 -5 5 -3 1 4 -3 6 3 21 15 32 16 15 20 27 15 45 -4
17 -2 26 5 26 8 0 9 4 0 13 -6 8 -8 16 -6 19 3 3 7 14 9 25 3 14 -2 19 -20 19
-13 0 -24 -4 -24 -8 0 -5 -10 -3 -22 3 -24 13 -26 13 -45 -3 -9 -7 -13 -7 -13
1 0 6 -7 11 -15 11 -8 0 -15 -5 -15 -12 0 -9 -3 -9 -12 0 -7 7 -25 12 -41 12
-25 0 -29 -3 -25 -22 4 -20 0 -23 -29 -23 -18 0 -33 4 -33 8 0 18 -27 34 -58
33 -26 -1 -34 4 -38 21 -5 17 -12 21 -37 17 -21 -2 -27 -1 -18 5 12 8 12 11
-1 24 -14 14 -47 15 -105 3 -13 -3 -23 -1 -23 5 0 5 -7 9 -15 9 -8 0 -15 -4
-15 -8 0 -4 -9 -8 -19 -8 -11 0 -17 4 -15 8 3 4 0 8 -6 8 -6 0 -20 -16 -31
-35z"/>
<path d="M1801 1961 c-17 -17 -37 -20 -158 -23 -100 -2 -138 -7 -139 -16 -1
-6 -3 -15 -4 -19 -2 -5 -4 -15 -4 -23 -1 -8 -9 -14 -19 -12 -14 2 -17 -2 -13
-22 3 -15 0 -27 -5 -27 -5 -1 -15 -2 -21 -3 -8 0 -13 -16 -14 -37 -1 -23 -9
-44 -23 -58 -23 -23 -27 -41 -10 -41 8 0 8 -4 2 -12 -6 -7 -9 -21 -8 -30 2
-10 -3 -18 -11 -18 -8 0 -13 -6 -12 -12 2 -7 -3 -12 -10 -10 -7 1 -12 -8 -11
-25 4 -62 -1 -81 -18 -79 -15 1 -18 -8 -18 -52 0 -34 -5 -56 -14 -61 -7 -5
-11 -14 -7 -20 5 -7 1 -9 -9 -4 -14 5 -16 -1 -14 -41 2 -31 -1 -50 -10 -55 -7
-5 -13 -12 -13 -17 0 -5 -4 -8 -9 -7 -20 6 -7 -28 14 -37 l22 -9 -22 0 c-13
-1 -23 -6 -23 -12 0 -5 5 -7 11 -3 8 5 8 1 0 -14 -6 -11 -11 -32 -11 -45 0
-13 -9 -32 -21 -43 -16 -14 -20 -28 -18 -69 2 -34 8 -52 18 -57 14 -6 13 -7
-1 -7 -11 -1 -18 -9 -18 -21 0 -11 -8 -28 -17 -38 -22 -22 -29 -62 -11 -62 9
0 9 -3 2 -8 -18 -11 -13 -44 5 -37 11 3 10 0 -3 -10 -20 -15 -20 -15 0 -16 15
0 16 -2 4 -7 -8 -4 -15 -18 -15 -32 1 -33 -13 -62 -26 -55 -5 4 -9 0 -9 -7 0
-9 -2 -10 -8 -1 -10 16 -192 16 -192 0 0 -8 -3 -9 -8 -1 -4 6 -35 10 -70 10
-46 -1 -61 2 -57 12 2 6 0 12 -4 12 -10 0 -24 -28 -26 -50 0 -8 -7 -14 -14
-12 -8 2 -20 -6 -28 -17 -8 -12 -20 -18 -29 -14 -9 3 -14 0 -12 -8 2 -9 -4
-13 -16 -11 -14 3 -17 -1 -13 -12 4 -9 1 -17 -6 -17 -7 -1 -19 -2 -27 -3 -10
-1 -14 -10 -12 -27 1 -15 -4 -32 -13 -39 -10 -8 -15 -9 -15 -1 0 6 6 11 13 11
8 0 7 4 -3 10 -23 15 -27 12 -27 -21 0 -21 -7 -37 -24 -50 -16 -13 -19 -19 -9
-19 10 0 11 -3 4 -8 -7 -4 -11 -52 -11 -129 0 -106 2 -123 16 -123 9 0 21 -11
28 -25 6 -14 7 -23 2 -19 -13 8 -11 -10 3 -24 15 -15 32 -16 23 -2 -3 6 -2 10
3 10 5 0 12 -8 16 -18 5 -14 11 -26 34 -62 2 -2 7 2 12 10 7 10 10 11 10 3 0
-16 326 -19 332 -3 2 5 18 10 36 12 17 1 32 7 32 13 0 5 4 4 9 -4 8 -12 12
-12 25 2 9 8 16 24 16 34 0 10 4 14 8 8 11 -15 32 -17 30 -3 -2 7 -7 16 -13
20 -5 4 14 8 43 8 l53 0 -4 39 c-2 22 -1 40 2 39 31 -3 43 4 38 22 -5 19 3 24
31 21 8 -1 11 6 8 23 -4 21 -1 24 20 20 19 -4 23 -1 21 16 -2 11 -6 23 -10 26
-10 10 -9 26 2 20 5 -3 14 1 21 9 13 15 30 12 30 -6 0 -6 -4 -7 -10 -4 -5 3
-10 0 -10 -8 0 -10 13 -14 45 -14 26 0 45 4 45 11 0 7 4 6 9 -2 4 -7 23 -12
42 -11 50 3 66 0 53 -9 -9 -5 -8 -11 2 -20 12 -11 14 -9 14 7 0 32 20 36 21 4
0 -25 1 -26 9 -8 6 13 9 15 9 5 1 -18 55 -24 82 -9 13 6 19 6 19 -1 0 -6 27
-10 65 -10 36 0 65 4 65 8 0 5 7 9 15 9 8 0 15 -4 15 -9 0 -11 52 -7 69 6 10
8 15 8 18 -1 6 -18 20 -16 43 7 11 11 27 20 36 20 9 0 12 5 8 13 -6 10 -4 10
7 0 7 -7 24 -13 37 -13 16 0 21 4 16 13 -5 7 0 6 11 -3 17 -14 18 -13 13 8 -5
19 -3 21 20 17 14 -2 31 0 38 6 7 6 17 8 21 6 5 -3 14 7 22 23 11 26 15 28 37
20 35 -14 35 -13 28 15 -5 22 -3 25 17 23 20 -3 24 1 22 20 -2 13 1 21 6 18 5
-3 25 10 45 28 25 24 36 43 36 63 0 26 -19 71 -20 48 0 -5 -6 -1 -12 9 -8 15
-8 21 1 24 6 2 18 11 27 19 8 8 17 13 20 10 3 -3 -3 -12 -15 -19 -29 -18 -26
-27 7 -24 18 1 27 7 26 19 -1 9 3 18 10 18 6 1 16 2 23 3 6 0 25 13 42 29 17
15 31 24 31 20 0 -4 7 3 16 15 14 21 41 22 28 1 -3 -5 -9 -7 -13 -5 -4 3 -8
-1 -8 -8 0 -15 32 -15 32 0 2 21 17 53 28 57 7 2 18 -2 26 -10 12 -13 11 -14
-8 -8 -23 7 -30 -10 -7 -18 9 -4 12 -14 9 -26 -6 -24 14 -54 32 -47 8 3 10 -4
7 -19 -3 -18 1 -24 19 -27 18 -2 24 -9 24 -28 0 -31 12 -50 30 -50 9 0 12 8
10 21 -4 21 -4 21 15 4 16 -15 18 -21 7 -33 -9 -13 -9 -14 1 -8 8 5 12 1 12
-11 0 -15 2 -16 10 -3 5 8 10 10 10 4 0 -18 52 -11 75 11 16 16 21 34 23 87 1
38 -2 68 -6 68 -5 0 -5 33 0 73 4 39 7 114 6 166 -1 88 0 95 20 102 13 5 20
16 19 28 -1 19 -2 19 -21 3 -19 -16 -20 -16 -7 0 7 9 10 22 6 28 -3 5 0 10 7
10 13 0 19 65 7 85 -8 15 14 50 31 50 19 0 26 76 9 106 -7 14 -7 19 0 15 19
-12 50 30 46 63 -2 18 2 37 11 46 8 8 13 19 9 25 -3 6 1 7 9 4 9 -3 16 -1 16
5 0 6 -8 11 -17 11 -12 0 -14 3 -6 8 6 4 15 20 19 36 4 16 15 31 26 34 11 2
17 10 14 18 -3 7 6 24 19 38 14 15 22 34 20 46 -4 19 5 24 33 21 8 -1 11 7 8
24 -4 22 -2 25 14 20 24 -8 37 15 17 30 -11 8 -13 15 -6 22 12 12 21 53 11 52
-22 -4 -52 2 -52 10 0 4 12 7 26 5 25 -2 26 -1 11 14 -15 14 -18 14 -35 -2
-16 -14 -42 -17 -156 -18 -75 -1 -139 -5 -142 -9 -2 -5 -12 -5 -21 -2 -12 5
-15 2 -10 -10 4 -12 1 -17 -11 -17 -15 0 -15 -2 -2 -10 13 -8 12 -10 -2 -10
-10 0 -18 -6 -18 -12 0 -7 -7 -22 -15 -32 -14 -19 -15 -18 -15 10 0 22 3 26
10 14 5 -8 10 -10 10 -4 0 5 -5 15 -12 22 -9 9 -9 12 0 12 15 0 3 31 -20 50
-11 8 -20 29 -21 45 -2 21 -8 30 -20 29 -9 -1 -17 3 -17 8 0 13 -26 38 -39 38
-6 0 -11 -5 -11 -10 0 -7 -6 -7 -19 0 -25 13 -222 11 -238 -3 -7 -5 -13 -18
-13 -28 0 -15 -4 -16 -31 -9 -36 11 -53 4 -45 -16 3 -8 1 -14 -5 -14 -6 0 -29
-19 -52 -42 -23 -24 -46 -43 -51 -43 -5 0 -11 -11 -13 -24 -5 -32 -21 -51 -44
-51 -11 0 -18 -6 -17 -12 2 -7 -3 -12 -9 -10 -7 1 -13 -2 -13 -8 0 -24 -20
-51 -32 -43 -5 2 -8 0 -8 -5 0 -6 -8 -9 -17 -8 -14 1 -18 -7 -18 -39 0 -34 -3
-40 -21 -39 -13 1 -21 -5 -21 -15 0 -57 -4 -70 -17 -65 -23 9 -29 -16 -10 -37
13 -15 14 -18 3 -14 -11 4 -15 -2 -15 -22 -1 -16 -3 -35 -6 -43 -2 -8 -3 -12
-1 -7 3 4 9 7 15 7 6 0 4 -8 -4 -17 -9 -10 -13 -24 -11 -30 3 -8 -4 -13 -16
-13 -19 0 -21 -5 -19 -44 2 -24 6 -42 11 -39 4 2 7 -3 7 -11 0 -9 -4 -16 -10
-16 -5 0 -10 -13 -10 -30 0 -16 4 -30 8 -30 5 0 4 -27 -1 -61 -8 -49 -7 -63 4
-70 8 -5 9 -9 4 -9 -18 0 -15 -43 3 -56 16 -13 16 -13 0 -14 -16 0 -16 -2 2
-20 14 -14 20 -33 20 -66 0 -44 22 -85 38 -70 3 4 0 11 -8 16 -8 5 -11 12 -7
17 13 12 27 -19 23 -48 -4 -25 -2 -27 28 -23 17 2 25 1 19 -2 -7 -3 -13 -14
-13 -25 0 -13 7 -19 24 -19 13 0 26 -7 30 -15 3 -8 26 -20 51 -26 36 -9 45
-15 44 -33 -1 -17 -2 -17 -6 -3 -2 9 -9 17 -15 17 -6 0 -8 -3 -5 -7 4 -3 -4
-16 -18 -28 -13 -13 -22 -25 -20 -27 3 -2 -18 -3 -44 -1 -29 2 -52 -1 -56 -7
-5 -8 -11 -7 -22 1 -11 10 -16 10 -23 0 -5 -9 -10 -10 -14 -2 -9 14 -96 15
-96 1 0 -7 -6 -7 -18 -1 -22 12 -112 10 -112 -3 0 -5 -6 -4 -12 2 -7 5 -55 10
-107 10 -77 1 -95 4 -107 19 -12 16 -13 16 -14 1 0 -12 -6 -15 -22 -10 -19 5
-20 7 -5 10 9 2 17 8 17 13 0 6 -5 7 -11 3 -8 -4 -9 1 -4 16 5 15 3 20 -3 16
-6 -3 -14 -1 -18 5 -4 8 -3 9 4 5 8 -5 12 1 12 15 0 12 11 32 25 45 24 22 36
52 16 39 -16 -9 -22 12 -7 24 7 6 13 25 14 42 1 33 7 44 24 44 15 0 20 42 7
50 -6 4 -6 11 -1 18 14 18 20 86 7 91 -5 3 2 3 18 0 16 -4 27 -2 27 5 0 6 -8
11 -17 11 -14 0 -15 2 -5 9 11 7 18 22 21 52 1 4 9 6 18 5 13 -1 18 7 18 27 1
16 -3 31 -8 34 -4 2 -3 11 4 19 6 8 9 22 6 33 -3 12 1 18 11 17 9 -1 19 12 24
32 5 17 13 32 18 32 6 0 9 6 8 13 -2 6 3 11 10 9 6 -1 12 5 12 14 0 10 -6 14
-15 10 -8 -3 -15 -1 -15 4 0 6 6 10 14 10 8 0 15 8 15 18 -1 47 9 77 25 74 11
-2 16 4 16 19 0 12 10 30 22 41 19 16 20 21 8 28 -11 7 -11 10 -2 10 7 0 12 8
10 18 -2 13 3 16 20 14 18 -3 23 1 22 15 -5 48 0 63 23 64 20 0 20 1 3 8 -21
8 -18 12 29 36 14 8 20 21 20 47 0 20 3 34 8 31 4 -2 7 0 7 6 0 5 -6 12 -12
14 -10 4 -10 6 0 6 7 1 11 5 8 9 -3 5 1 9 9 9 8 0 12 -4 9 -9 -3 -4 -1 -8 4
-8 5 0 12 18 16 40 4 27 11 40 22 40 14 0 14 3 4 15 -7 8 -8 15 -2 15 12 0 13
48 0 56 -5 3 -15 0 -23 -6 -10 -8 -15 -9 -15 -2 0 10 -44 7 -62 -4 -4 -3 -8 0
-8 5 0 6 -7 11 -15 11 -8 0 -15 -6 -15 -12 0 -8 -3 -9 -8 -3 -13 18 -41 16
-61 -4z m788 -387 c-18 -22 4 -42 26 -24 13 11 14 8 9 -20 -5 -22 -3 -35 7
-41 12 -7 12 -9 -1 -9 -13 0 -13 -1 0 -10 12 -8 12 -10 1 -10 -11 0 -11 -3 0
-17 12 -15 12 -16 -1 -8 -13 8 -13 7 0 -10 9 -11 10 -16 3 -11 -7 4 -13 2 -13
-3 0 -6 8 -11 18 -11 16 -1 16 -1 0 -10 -18 -11 -18 -44 0 -46 7 -1 16 -2 20
-3 12 -2 9 -91 -4 -99 -14 -10 -15 -52 -1 -52 7 0 6 -4 -3 -10 -12 -8 -12 -10
-1 -10 8 0 11 -3 7 -7 -4 -5 -13 -8 -19 -8 -6 0 -13 -12 -14 -27 -1 -16 3 -28
10 -28 8 0 8 -3 2 -8 -6 -4 -11 -16 -11 -27 0 -11 5 -23 11 -27 6 -5 5 -8 -3
-8 -8 0 -11 -7 -8 -18 7 -20 -36 -86 -48 -75 -4 4 -12 1 -17 -7 -8 -11 -12
-12 -16 -2 -2 6 -13 12 -24 12 -22 0 -27 -35 -6 -44 6 -3 -3 -3 -22 0 -18 2
-39 -1 -47 -7 -10 -8 -14 -8 -14 0 0 18 -20 12 -21 -6 0 -15 -2 -15 -9 2 -9
19 -9 19 -16 -3 -8 -28 -51 -28 -46 1 2 9 -2 17 -8 17 -5 0 -10 -4 -10 -8 0
-5 -7 -9 -15 -9 -8 0 -12 4 -9 8 3 5 -4 17 -15 28 -11 11 -21 28 -23 38 -2 10
-7 21 -13 25 -6 5 -5 8 3 8 8 0 12 16 12 46 0 43 -2 46 -22 41 -23 -6 -23 -6
-3 9 22 16 26 35 10 46 -6 5 -6 8 2 8 6 0 10 11 9 25 -3 19 1 24 18 22 19 -2
21 3 21 56 0 52 2 57 23 57 15 0 22 6 22 20 0 11 5 20 11 20 6 0 9 7 6 14 -4
11 -1 13 10 9 11 -4 14 -2 11 8 -3 8 -1 24 3 36 5 14 4 23 -4 27 -7 2 -4 5 6
5 9 1 17 9 17 19 0 14 2 15 10 2 9 -15 12 -11 14 20 1 8 8 15 16 15 16 0 61
40 54 48 -3 3 0 8 7 13 8 5 10 3 4 -6 -5 -8 -3 -11 6 -8 8 3 19 14 24 25 6 11
15 18 22 16 6 -2 14 1 18 7 3 6 11 8 16 4 6 -4 5 -11 -2 -20z m-1703 -1142
c-2 -4 16 -7 40 -7 24 0 44 5 44 10 0 6 4 5 8 -1 4 -7 16 -13 27 -16 15 -2 19
-10 17 -28 -4 -22 -2 -23 14 -10 12 10 10 5 -5 -17 -15 -20 -29 -29 -39 -25
-11 4 -14 1 -9 -11 7 -20 -8 -31 -44 -31 -32 -1 -45 -11 -28 -22 7 -4 10 -3 6
3 -3 5 0 10 8 10 11 0 12 -4 4 -14 -6 -7 -15 -11 -19 -8 -5 3 -11 1 -15 -5
-11 -17 -65 -7 -92 18 -15 14 -32 21 -43 17 -12 -4 -19 1 -23 17 -8 29 27 68
61 68 20 0 24 4 20 25 -3 13 -2 23 1 20 4 -2 13 0 21 6 18 11 53 12 46 1z"/>
<path d="M3650 1930 c0 -8 -16 -22 -35 -31 -19 -9 -32 -12 -29 -7 4 6 -3 5
-15 -1 -11 -6 -24 -24 -27 -39 -4 -15 -15 -34 -26 -43 -20 -18 -25 -44 -5 -33
10 6 10 4 0 -7 -7 -7 -13 -22 -13 -33 0 -12 -4 -16 -8 -11 -11 15 -32 17 -29
2 1 -6 6 -15 10 -18 9 -6 -6 -39 -32 -72 -8 -10 -16 -25 -17 -33 -1 -8 -12
-24 -24 -34 -14 -12 -20 -28 -19 -52 1 -18 -1 -43 -5 -55 -5 -16 -3 -23 6 -23
8 0 6 -5 -5 -11 -9 -6 -15 -14 -12 -20 3 -5 -1 -6 -9 -3 -9 3 -16 1 -16 -5 0
-6 5 -11 11 -11 6 0 7 -5 2 -12 -4 -7 -8 -27 -10 -45 -1 -17 -11 -41 -23 -53
-17 -17 -20 -31 -19 -71 2 -28 7 -52 11 -55 5 -3 4 -12 -3 -20 -6 -8 -9 -23
-6 -34 3 -11 -1 -27 -10 -35 -8 -8 -12 -19 -8 -25 3 -5 0 -7 -9 -4 -10 4 -14
0 -13 -15 1 -12 6 -21 12 -21 5 0 4 -4 -4 -9 -17 -11 -4 -34 15 -27 8 3 14 1
14 -4 0 -6 -9 -10 -20 -10 -11 0 -20 -4 -20 -9 0 -5 9 -11 20 -14 11 -3 20
-11 20 -19 0 -10 -2 -10 -10 2 -14 23 -19 9 -24 -63 -3 -61 3 -82 19 -57 3 6
12 10 18 10 7 0 6 -4 -3 -11 -8 -6 -11 -12 -5 -15 6 -2 9 -31 8 -64 0 -33 3
-62 8 -66 5 -3 9 -10 9 -15 0 -6 -4 -8 -9 -5 -5 3 -8 -5 -8 -18 0 -23 3 -24
56 -23 47 2 56 5 55 20 -1 9 4 17 12 17 8 0 13 6 11 13 -1 6 4 11 11 10 6 -2
12 1 12 6 0 5 -10 12 -22 14 l-23 4 23 2 c13 0 22 7 22 17 0 9 8 23 18 31 13
11 14 16 4 20 -10 4 -9 8 4 17 13 10 14 17 5 34 -8 14 -8 22 -1 22 5 0 10 5
10 11 0 5 -6 7 -12 3 -10 -6 -10 -5 -1 8 7 8 9 19 5 24 -4 4 2 2 12 -6 13 -10
17 -10 12 -2 -4 7 -2 12 7 12 16 0 30 52 17 60 -4 3 -2 11 6 18 8 7 14 8 14 2
0 -5 5 -10 11 -10 7 0 9 9 5 23 -4 17 0 25 17 32 25 11 35 54 15 66 -10 7 -10
9 -1 9 7 0 12 3 12 8 -4 22 3 32 21 32 14 0 20 7 20 24 0 16 5 23 17 22 13 -1
18 7 19 29 0 40 11 56 30 48 10 -4 15 -1 14 8 -4 28 0 37 18 35 14 -1 17 7 17
40 0 35 3 41 20 40 11 -1 20 5 20 14 0 8 10 16 23 18 14 2 22 10 22 22 0 28
15 32 41 10 13 -11 19 -19 13 -20 -14 0 -14 -172 0 -182 8 -5 7 -8 -1 -8 -6 0
-10 -8 -8 -17 2 -10 4 -24 4 -32 1 -7 7 -11 16 -7 8 3 14 2 14 -2 -5 -29 3
-62 14 -59 6 1 11 -4 10 -10 -2 -7 2 -13 7 -13 6 0 10 -9 10 -20 0 -15 7 -20
26 -20 20 0 24 -4 20 -18 -5 -15 1 -18 46 -18 29 0 56 4 60 10 5 7 8 7 8 1 0
-6 8 -11 19 -12 17 -1 19 7 17 121 -1 115 0 123 18 122 14 -1 20 7 23 27 3 20
-1 27 -14 28 -11 0 -13 3 -5 6 6 2 12 18 12 34 0 21 4 27 15 22 10 -3 15 0 13
8 -2 8 3 13 10 12 14 -3 16 23 2 32 -6 4 -6 12 -1 23 5 9 12 25 15 34 3 11 11
15 21 12 12 -5 14 -1 11 17 -2 14 -10 23 -17 21 -9 -1 -7 3 4 11 9 8 17 19 17
25 0 6 8 18 18 28 17 17 18 21 21 48 0 9 9 13 19 11 15 -2 18 2 17 23 -2 38 4
52 25 52 21 0 35 51 17 62 -9 6 -8 8 2 8 8 0 11 6 7 16 -3 8 -2 12 4 9 6 -3
10 1 10 9 0 9 7 16 16 16 40 0 54 64 21 97 -16 17 -80 26 -71 11 3 -4 -4 -8
-16 -8 -12 0 -18 5 -15 10 9 14 -8 13 -23 -2 -8 -8 -12 -8 -12 -1 0 6 -23 10
-57 9 -51 -1 -58 -3 -58 -21 0 -18 -6 -20 -64 -17 -63 3 -63 3 -59 -22 4 -21
2 -24 -18 -20 -12 2 -26 -1 -30 -7 -5 -8 -2 -9 7 -4 11 6 12 5 2 -5 -7 -8 -23
-15 -35 -17 -21 -3 -21 -3 -2 18 17 20 17 22 2 16 -10 -3 -20 -2 -23 3 -4 6
-1 10 4 10 6 0 11 7 11 16 0 14 -3 14 -15 4 -13 -11 -14 -10 -9 4 3 9 9 16 13
16 4 0 8 7 8 14 0 18 -18 16 -34 -4 -11 -13 -12 -13 -7 3 5 14 0 17 -39 17
-27 0 -47 -5 -50 -12 -4 -10 -6 -9 -6 1 -1 11 -6 10 -21 -4 -18 -16 -20 -16
-20 -2 0 14 -10 17 -55 17 -49 0 -55 -2 -55 -21 0 -17 -3 -19 -13 -10 -8 6
-17 7 -21 3 -4 -4 -6 -1 -4 7 2 7 -3 16 -11 19 -8 3 -11 0 -7 -7 4 -6 3 -11
-3 -11 -5 0 -12 6 -14 13 -4 8 -6 7 -7 -3z"/>
</g>
</svg>
