<?xml version="1.0"?>
<svg xmlns="http://www.w3.org/2000/svg" version="1.0" width="512px" height="512px" viewBox="0 0 154.000000 71.000000" preserveAspectRatio="xMidYMid meet" class=""><g><metadata class="active-path" style="fill:#FF8A01" data-old_color="##FF8A0">
Created by potrace 1.15, written by Peter Selinger 2001-2017
</metadata><g transform="translate(0.000000,71.000000) scale(0.100000,-0.100000)" fill="#000000" stroke="none">
<path d="M103 690 c-3 -11 -8 -18 -12 -16 -17 11 -44 -26 -45 -61 l-1 -38 100 -2 c134 -2 147 1 143 34 -2 14 2 28 8 30 6 2 8 -10 6 -33 -4 -37 -4 -37 26 -31 33 7 53 -7 26 -17 -21 -8 -14 -50 9 -54 23 -5 53 22 61 53 4 17 11 22 26 18 13 -4 22 1 26 13 15 49 22 58 17 23 l-5 -37 53 1 c30 0 59 4 66 9 7 5 14 5 17 -1 10 -16 96 -11 103 6 3 8 0 19 -7 23 -7 4 -10 16 -7 26 19 70 19 74 -9 74 -19 0 -25 -4 -20 -15 3 -9 0 -15 -9 -15 -17 0 -56 -40 -49 -51 5 -8 -37 -41 -44 -34 -2 2 5 14 17 26 27 29 27 45 0 52 -22 6 -49 -18 -61 -56 -5 -14 -6 -9 -3 16 3 29 0 37 -13 38 -9 1 -24 2 -32 3 -8 1 -23 -2 -32 -7 -10 -4 -18 -4 -18 1 0 5 -14 8 -32 7 -33 -2 -58 -27 -58 -57 0 -10 -5 -18 -11 -18 -6 0 -8 9 -4 23 12 38 11 40 -34 49 -48 8 -74 -3 -69 -31 4 -24 -11 -41 -35 -41 l-21 0 22 16 c26 18 26 56 1 60 -24 3 -35 -7 -52 -46 l-16 -35 6 58 c5 50 4 57 -12 57 -9 0 -19 -9 -22 -20z" data-original="#000000" class="active-path" data-old_color="##FF8A0" fill="#ff8a01"/>
<path d="M784 663 c-11 -68 -11 -67 -1 -80 15 -21 44 -15 64 12 l18 25 0 -29 c0 -16 -3 -33 -7 -37 -5 -4 -8 -18 -8 -31 0 -37 50 -28 70 13 9 17 21 29 28 26 7 -2 12 3 12 11 0 9 -4 17 -10 19 -5 2 -6 18 -1 41 14 61 -17 59 -36 -3 -11 -35 -11 -35 -6 9 6 41 4 44 -13 37 -22 -9 -22 -9 -51 -7 -16 1 -20 6 -16 21 4 15 0 20 -15 20 -17 0 -22 -9 -28 -47z" data-original="#000000" class="active-path" data-old_color="##FF8A0" fill="#ff8a01"/>
<path d="M996 645 c-42 -64 10 -108 134 -114 30 -2 57 -5 59 -7 2 -2 -1 -14 -7 -27 -16 -31 -48 -132 -61 -192 -21 -91 -22 -147 -6 -172 28 -42 38 -27 50 70 6 52 64 236 88 283 9 17 22 36 30 42 30 25 211 17 245 -10 9 -8 12 -6 12 5 0 33 -87 74 -167 79 -48 3 -49 6 -28 34 23 31 18 36 -32 30 -35 -4 -54 -12 -68 -30 -15 -19 -36 -27 -85 -35 -87 -14 -106 -14 -124 5 -21 21 -20 31 4 39 11 4 18 11 15 16 -11 17 -43 9 -59 -16z" data-original="#000000" class="active-path" data-old_color="##FF8A0" fill="#ff8a01"/>
<path d="M110 484 c-64 -34 -107 -108 -108 -188 0 -53 3 -62 35 -97 32 -35 40 -39 84 -39 39 0 55 5 81 29 34 30 75 91 61 91 -4 0 -21 -11 -37 -25 -42 -36 -94 -49 -123 -30 -26 17 -38 54 -29 89 9 35 54 86 77 86 16 0 19 -7 19 -42 0 -52 9 -88 22 -88 10 0 98 181 98 201 0 8 -12 10 -33 6 -19 -3 -43 1 -57 9 -31 16 -57 16 -90 -2z" data-original="#000000" class="active-path" data-old_color="##FF8A0" fill="#ff8a01"/>
<path d="M420 482 c-23 -2 -40 -10 -49 -24 -18 -29 -59 -161 -74 -236 l-12 -62 -47 0 c-88 0 -140 -80 -89 -138 35 -41 125 -22 163 34 15 23 28 32 38 28 25 -11 141 -12 176 -1 18 6 45 22 60 38 l26 27 -121 -4 c-111 -4 -121 -3 -121 13 0 35 51 177 90 251 22 41 40 77 40 79 0 1 -10 2 -22 0 -13 -1 -39 -3 -58 -5z" data-original="#000000" class="active-path" data-old_color="##FF8A0" fill="#ff8a01"/>
<path d="M605 480 c-33 -13 -93 -86 -104 -127 -38 -135 30 -226 131 -173 27 14 38 16 38 7 0 -16 37 -57 50 -57 6 0 10 24 10 53 0 77 25 179 54 226 14 22 26 43 26 46 0 3 -20 5 -45 5 -31 0 -47 -5 -54 -17 -10 -16 -10 -16 -11 3 0 40 -43 56 -95 34z m59 -113 c6 -31 -1 -127 -9 -136 -2 -2 -22 -7 -44 -11 -34 -6 -41 -4 -49 14 -13 30 5 87 40 130 37 45 54 46 62 3z" data-original="#000000" class="active-path" data-old_color="##FF8A0" fill="#ff8a01"/>
<path d="M896 464 c-18 -18 -55 -115 -66 -174 -9 -46 -6 -127 4 -138 8 -7 35 28 36 45 0 21 68 138 94 162 l24 22 -5 -46 c-4 -35 -1 -50 12 -65 27 -30 45 -25 45 13 0 18 17 66 37 107 21 41 39 79 41 83 8 15 -75 -2 -114 -23 -35 -20 -37 -21 -21 -3 9 11 17 22 17 25 0 13 -91 6 -104 -8z" data-original="#000000" class="active-path" data-old_color="##FF8A0" fill="#ff8a01"/>
</g></g> </svg>
